<svg xmlns="http://www.w3.org/2000/svg" xmlns:xlink="http://www.w3.org/1999/xlink" width="1341" zoomAndPan="magnify" viewBox="0 0 1006.5 821.999993" height="1096" preserveAspectRatio="xMidYMid meet" version="1.0"><defs><g/><clipPath id="d8e7ec55d1"><path d="M 736 657.472656 L 766.613281 657.472656 L 766.613281 718.601562 L 736 718.601562 Z M 736 657.472656 " clip-rule="nonzero"/></clipPath></defs><g fill="#fe5a5f" fill-opacity="1"><g transform="translate(147.830804, 390.195247)"><g><path d="M 3.09375 -73.8125 L 35.78125 -73.8125 L 42.515625 -51.796875 L 42.515625 -73.8125 L 75.40625 -73.8125 L 75.40625 0 L 42.515625 0 L 36.84375 -21.578125 L 36.84375 0 L 3.09375 0 Z M 3.09375 -73.8125 "/></g></g></g><g fill="#fe5a5f" fill-opacity="1"><g transform="translate(229.641786, 390.195247)"><g><path d="M 38.34375 -74.875 L 47.21875 -74.875 C 60.03125 -74.875 69.351562 -71.847656 75.1875 -65.796875 C 81.03125 -59.742188 83.953125 -50.238281 83.953125 -37.28125 C 83.953125 -24.320312 81.015625 -14.691406 75.140625 -8.390625 C 69.265625 -2.085938 59.957031 1.0625 47.21875 1.0625 L 38.34375 1.0625 C 25.59375 1.0625 16.265625 -2.085938 10.359375 -8.390625 C 4.453125 -14.691406 1.5 -24.320312 1.5 -37.28125 C 1.5 -50.238281 4.4375 -59.742188 10.3125 -65.796875 C 16.1875 -71.847656 25.53125 -74.875 38.34375 -74.875 Z M 39.734375 -39.734375 L 39.734375 -27.34375 C 39.734375 -26.414062 40 -25.664062 40.53125 -25.09375 C 41.070312 -24.53125 41.785156 -24.25 42.671875 -24.25 C 43.554688 -24.25 44.300781 -24.53125 44.90625 -25.09375 C 45.519531 -25.664062 45.828125 -26.414062 45.828125 -27.34375 L 45.828125 -39.734375 C 45.828125 -40.585938 45.519531 -41.296875 44.90625 -41.859375 C 44.300781 -42.429688 43.554688 -42.71875 42.671875 -42.71875 C 41.785156 -42.71875 41.070312 -42.429688 40.53125 -41.859375 C 40 -41.296875 39.734375 -40.585938 39.734375 -39.734375 Z M 39.734375 -39.734375 "/></g></g></g><g fill="#fe5a5f" fill-opacity="1"><g transform="translate(318.501749, 390.195247)"><g><path d="M 3.09375 -42.71875 L 3.09375 -73.8125 L 68.890625 -73.8125 L 68.890625 -42.71875 L 55.859375 -42.71875 L 55.859375 0 L 15.921875 0 L 15.921875 -42.71875 Z M 3.09375 -42.71875 "/></g></g></g><g fill="#fe5a5f" fill-opacity="1"><g transform="translate(393.797765, 390.195247)"><g/></g></g><g fill="#fe5a5f" fill-opacity="1"><g transform="translate(427.654325, 390.195247)"><g><path d="M 1.5 -73.8125 L 61.421875 -73.8125 L 61.421875 -42.71875 L 38.34375 -42.71875 L 38.34375 -38.453125 L 61.421875 -38.453125 L 61.421875 -23.5 L 38.34375 -23.5 L 38.34375 0 L 1.5 0 Z M 1.5 -73.8125 "/></g></g></g><g fill="#fe5a5f" fill-opacity="1"><g transform="translate(493.872113, 390.195247)"><g><path d="M 38.34375 -74.875 L 47.21875 -74.875 C 60.03125 -74.875 69.351562 -71.847656 75.1875 -65.796875 C 81.03125 -59.742188 83.953125 -50.238281 83.953125 -37.28125 C 83.953125 -24.320312 81.015625 -14.691406 75.140625 -8.390625 C 69.265625 -2.085938 59.957031 1.0625 47.21875 1.0625 L 38.34375 1.0625 C 25.59375 1.0625 16.265625 -2.085938 10.359375 -8.390625 C 4.453125 -14.691406 1.5 -24.320312 1.5 -37.28125 C 1.5 -50.238281 4.4375 -59.742188 10.3125 -65.796875 C 16.1875 -71.847656 25.53125 -74.875 38.34375 -74.875 Z M 39.734375 -39.734375 L 39.734375 -27.34375 C 39.734375 -26.414062 40 -25.664062 40.53125 -25.09375 C 41.070312 -24.53125 41.785156 -24.25 42.671875 -24.25 C 43.554688 -24.25 44.300781 -24.53125 44.90625 -25.09375 C 45.519531 -25.664062 45.828125 -26.414062 45.828125 -27.34375 L 45.828125 -39.734375 C 45.828125 -40.585938 45.519531 -41.296875 44.90625 -41.859375 C 44.300781 -42.429688 43.554688 -42.71875 42.671875 -42.71875 C 41.785156 -42.71875 41.070312 -42.429688 40.53125 -41.859375 C 40 -41.296875 39.734375 -40.585938 39.734375 -39.734375 Z M 39.734375 -39.734375 "/></g></g></g><g fill="#fe5a5f" fill-opacity="1"><g transform="translate(582.732072, 390.195247)"><g><path d="M 44.328125 -73.8125 L 79.46875 -73.8125 L 79.46875 -32.796875 C 79.46875 -21.253906 76.53125 -12.722656 70.65625 -7.203125 C 64.78125 -1.691406 55.4375 1.0625 42.625 1.0625 L 39.84375 1.0625 C 27.09375 1.0625 17.78125 -1.710938 11.90625 -7.265625 C 6.03125 -12.816406 3.09375 -21.328125 3.09375 -32.796875 L 3.09375 -73.8125 L 38.125 -73.8125 L 38.125 -28.84375 C 38.125 -27.914062 38.410156 -27.179688 38.984375 -26.640625 C 39.554688 -26.109375 40.285156 -25.84375 41.171875 -25.84375 C 42.066406 -25.84375 42.816406 -26.128906 43.421875 -26.703125 C 44.023438 -27.273438 44.328125 -27.988281 44.328125 -28.84375 Z M 44.328125 -73.8125 "/></g></g></g><g fill="#fe5a5f" fill-opacity="1"><g transform="translate(668.494727, 390.195247)"><g><path d="M 3.09375 -73.8125 L 35.78125 -73.8125 L 42.515625 -51.796875 L 42.515625 -73.8125 L 75.40625 -73.8125 L 75.40625 0 L 42.515625 0 L 36.84375 -21.578125 L 36.84375 0 L 3.09375 0 Z M 3.09375 -73.8125 "/></g></g></g><g fill="#fe5a5f" fill-opacity="1"><g transform="translate(750.305705, 390.195247)"><g><path d="M 3.09375 -73.8125 L 41.65625 -73.8125 C 53.550781 -73.8125 62.648438 -70.960938 68.953125 -65.265625 C 75.253906 -59.566406 78.40625 -50.273438 78.40625 -37.390625 C 78.40625 -12.460938 65.65625 0 40.15625 0 L 3.09375 0 Z M 38.984375 -42.71875 L 38.984375 -24.25 L 41.984375 -24.25 C 42.835938 -24.25 43.566406 -24.53125 44.171875 -25.09375 C 44.773438 -25.664062 45.078125 -26.414062 45.078125 -27.34375 L 45.078125 -39.734375 C 45.078125 -40.585938 44.773438 -41.296875 44.171875 -41.859375 C 43.566406 -42.429688 42.835938 -42.71875 41.984375 -42.71875 Z M 38.984375 -42.71875 "/></g></g></g><g fill="#fe5a5f" fill-opacity="1"><g transform="translate(147.830804, 645.690984)"><g><path d="M 3.09375 -73.8125 L 35.78125 -73.8125 L 42.515625 -51.796875 L 42.515625 -73.8125 L 75.40625 -73.8125 L 75.40625 0 L 42.515625 0 L 36.84375 -21.578125 L 36.84375 0 L 3.09375 0 Z M 3.09375 -73.8125 "/></g></g></g><g fill="#fe5a5f" fill-opacity="1"><g transform="translate(229.641786, 645.690984)"><g><path d="M 38.34375 -74.875 L 47.21875 -74.875 C 60.03125 -74.875 69.351562 -71.847656 75.1875 -65.796875 C 81.03125 -59.742188 83.953125 -50.238281 83.953125 -37.28125 C 83.953125 -24.320312 81.015625 -14.691406 75.140625 -8.390625 C 69.265625 -2.085938 59.957031 1.0625 47.21875 1.0625 L 38.34375 1.0625 C 25.59375 1.0625 16.265625 -2.085938 10.359375 -8.390625 C 4.453125 -14.691406 1.5 -24.320312 1.5 -37.28125 C 1.5 -50.238281 4.4375 -59.742188 10.3125 -65.796875 C 16.1875 -71.847656 25.53125 -74.875 38.34375 -74.875 Z M 39.734375 -39.734375 L 39.734375 -27.34375 C 39.734375 -26.414062 40 -25.664062 40.53125 -25.09375 C 41.070312 -24.53125 41.785156 -24.25 42.671875 -24.25 C 43.554688 -24.25 44.300781 -24.53125 44.90625 -25.09375 C 45.519531 -25.664062 45.828125 -26.414062 45.828125 -27.34375 L 45.828125 -39.734375 C 45.828125 -40.585938 45.519531 -41.296875 44.90625 -41.859375 C 44.300781 -42.429688 43.554688 -42.71875 42.671875 -42.71875 C 41.785156 -42.71875 41.070312 -42.429688 40.53125 -41.859375 C 40 -41.296875 39.734375 -40.585938 39.734375 -39.734375 Z M 39.734375 -39.734375 "/></g></g></g><g fill="#fe5a5f" fill-opacity="1"><g transform="translate(318.501749, 645.690984)"><g><path d="M 3.09375 -42.71875 L 3.09375 -73.8125 L 68.890625 -73.8125 L 68.890625 -42.71875 L 55.859375 -42.71875 L 55.859375 0 L 15.921875 0 L 15.921875 -42.71875 Z M 3.09375 -42.71875 "/></g></g></g><g fill="#fe5a5f" fill-opacity="1"><g transform="translate(393.797765, 645.690984)"><g/></g></g><g fill="#fe5a5f" fill-opacity="1"><g transform="translate(427.654325, 645.690984)"><g><path d="M 1.5 -73.8125 L 61.421875 -73.8125 L 61.421875 -42.71875 L 38.34375 -42.71875 L 38.34375 -38.453125 L 61.421875 -38.453125 L 61.421875 -23.5 L 38.34375 -23.5 L 38.34375 0 L 1.5 0 Z M 1.5 -73.8125 "/></g></g></g><g fill="#fe5a5f" fill-opacity="1"><g transform="translate(493.872113, 645.690984)"><g><path d="M 38.34375 -74.875 L 47.21875 -74.875 C 60.03125 -74.875 69.351562 -71.847656 75.1875 -65.796875 C 81.03125 -59.742188 83.953125 -50.238281 83.953125 -37.28125 C 83.953125 -24.320312 81.015625 -14.691406 75.140625 -8.390625 C 69.265625 -2.085938 59.957031 1.0625 47.21875 1.0625 L 38.34375 1.0625 C 25.59375 1.0625 16.265625 -2.085938 10.359375 -8.390625 C 4.453125 -14.691406 1.5 -24.320312 1.5 -37.28125 C 1.5 -50.238281 4.4375 -59.742188 10.3125 -65.796875 C 16.1875 -71.847656 25.53125 -74.875 38.34375 -74.875 Z M 39.734375 -39.734375 L 39.734375 -27.34375 C 39.734375 -26.414062 40 -25.664062 40.53125 -25.09375 C 41.070312 -24.53125 41.785156 -24.25 42.671875 -24.25 C 43.554688 -24.25 44.300781 -24.53125 44.90625 -25.09375 C 45.519531 -25.664062 45.828125 -26.414062 45.828125 -27.34375 L 45.828125 -39.734375 C 45.828125 -40.585938 45.519531 -41.296875 44.90625 -41.859375 C 44.300781 -42.429688 43.554688 -42.71875 42.671875 -42.71875 C 41.785156 -42.71875 41.070312 -42.429688 40.53125 -41.859375 C 40 -41.296875 39.734375 -40.585938 39.734375 -39.734375 Z M 39.734375 -39.734375 "/></g></g></g><g fill="#fe5a5f" fill-opacity="1"><g transform="translate(582.732072, 645.690984)"><g><path d="M 44.328125 -73.8125 L 79.46875 -73.8125 L 79.46875 -32.796875 C 79.46875 -21.253906 76.53125 -12.722656 70.65625 -7.203125 C 64.78125 -1.691406 55.4375 1.0625 42.625 1.0625 L 39.84375 1.0625 C 27.09375 1.0625 17.78125 -1.710938 11.90625 -7.265625 C 6.03125 -12.816406 3.09375 -21.328125 3.09375 -32.796875 L 3.09375 -73.8125 L 38.125 -73.8125 L 38.125 -28.84375 C 38.125 -27.914062 38.410156 -27.179688 38.984375 -26.640625 C 39.554688 -26.109375 40.285156 -25.84375 41.171875 -25.84375 C 42.066406 -25.84375 42.816406 -26.128906 43.421875 -26.703125 C 44.023438 -27.273438 44.328125 -27.988281 44.328125 -28.84375 Z M 44.328125 -73.8125 "/></g></g></g><g fill="#fe5a5f" fill-opacity="1"><g transform="translate(668.494727, 645.690984)"><g><path d="M 3.09375 -73.8125 L 35.78125 -73.8125 L 42.515625 -51.796875 L 42.515625 -73.8125 L 75.40625 -73.8125 L 75.40625 0 L 42.515625 0 L 36.84375 -21.578125 L 36.84375 0 L 3.09375 0 Z M 3.09375 -73.8125 "/></g></g></g><g fill="#fe5a5f" fill-opacity="1"><g transform="translate(750.305705, 645.690984)"><g><path d="M 3.09375 -73.8125 L 41.65625 -73.8125 C 53.550781 -73.8125 62.648438 -70.960938 68.953125 -65.265625 C 75.253906 -59.566406 78.40625 -50.273438 78.40625 -37.390625 C 78.40625 -12.460938 65.65625 0 40.15625 0 L 3.09375 0 Z M 38.984375 -42.71875 L 38.984375 -24.25 L 41.984375 -24.25 C 42.835938 -24.25 43.566406 -24.53125 44.171875 -25.09375 C 44.773438 -25.664062 45.078125 -26.414062 45.078125 -27.34375 L 45.078125 -39.734375 C 45.078125 -40.585938 44.773438 -41.296875 44.171875 -41.859375 C 43.566406 -42.429688 42.835938 -42.71875 41.984375 -42.71875 Z M 38.984375 -42.71875 "/></g></g></g><g fill="#fe5a5f" fill-opacity="1"><g transform="translate(147.830804, 262.447405)"><g><path d="M 3.09375 -73.8125 L 35.78125 -73.8125 L 42.515625 -51.796875 L 42.515625 -73.8125 L 75.40625 -73.8125 L 75.40625 0 L 42.515625 0 L 36.84375 -21.578125 L 36.84375 0 L 3.09375 0 Z M 3.09375 -73.8125 "/></g></g></g><g fill="#fe5a5f" fill-opacity="1"><g transform="translate(229.641786, 262.447405)"><g><path d="M 38.34375 -74.875 L 47.21875 -74.875 C 60.03125 -74.875 69.351562 -71.847656 75.1875 -65.796875 C 81.03125 -59.742188 83.953125 -50.238281 83.953125 -37.28125 C 83.953125 -24.320312 81.015625 -14.691406 75.140625 -8.390625 C 69.265625 -2.085938 59.957031 1.0625 47.21875 1.0625 L 38.34375 1.0625 C 25.59375 1.0625 16.265625 -2.085938 10.359375 -8.390625 C 4.453125 -14.691406 1.5 -24.320312 1.5 -37.28125 C 1.5 -50.238281 4.4375 -59.742188 10.3125 -65.796875 C 16.1875 -71.847656 25.53125 -74.875 38.34375 -74.875 Z M 39.734375 -39.734375 L 39.734375 -27.34375 C 39.734375 -26.414062 40 -25.664062 40.53125 -25.09375 C 41.070312 -24.53125 41.785156 -24.25 42.671875 -24.25 C 43.554688 -24.25 44.300781 -24.53125 44.90625 -25.09375 C 45.519531 -25.664062 45.828125 -26.414062 45.828125 -27.34375 L 45.828125 -39.734375 C 45.828125 -40.585938 45.519531 -41.296875 44.90625 -41.859375 C 44.300781 -42.429688 43.554688 -42.71875 42.671875 -42.71875 C 41.785156 -42.71875 41.070312 -42.429688 40.53125 -41.859375 C 40 -41.296875 39.734375 -40.585938 39.734375 -39.734375 Z M 39.734375 -39.734375 "/></g></g></g><g fill="#fe5a5f" fill-opacity="1"><g transform="translate(318.501749, 262.447405)"><g><path d="M 3.09375 -42.71875 L 3.09375 -73.8125 L 68.890625 -73.8125 L 68.890625 -42.71875 L 55.859375 -42.71875 L 55.859375 0 L 15.921875 0 L 15.921875 -42.71875 Z M 3.09375 -42.71875 "/></g></g></g><g fill="#fe5a5f" fill-opacity="1"><g transform="translate(393.797765, 262.447405)"><g/></g></g><g fill="#fe5a5f" fill-opacity="1"><g transform="translate(427.654325, 262.447405)"><g><path d="M 1.5 -73.8125 L 61.421875 -73.8125 L 61.421875 -42.71875 L 38.34375 -42.71875 L 38.34375 -38.453125 L 61.421875 -38.453125 L 61.421875 -23.5 L 38.34375 -23.5 L 38.34375 0 L 1.5 0 Z M 1.5 -73.8125 "/></g></g></g><g fill="#fe5a5f" fill-opacity="1"><g transform="translate(493.872113, 262.447405)"><g><path d="M 38.34375 -74.875 L 47.21875 -74.875 C 60.03125 -74.875 69.351562 -71.847656 75.1875 -65.796875 C 81.03125 -59.742188 83.953125 -50.238281 83.953125 -37.28125 C 83.953125 -24.320312 81.015625 -14.691406 75.140625 -8.390625 C 69.265625 -2.085938 59.957031 1.0625 47.21875 1.0625 L 38.34375 1.0625 C 25.59375 1.0625 16.265625 -2.085938 10.359375 -8.390625 C 4.453125 -14.691406 1.5 -24.320312 1.5 -37.28125 C 1.5 -50.238281 4.4375 -59.742188 10.3125 -65.796875 C 16.1875 -71.847656 25.53125 -74.875 38.34375 -74.875 Z M 39.734375 -39.734375 L 39.734375 -27.34375 C 39.734375 -26.414062 40 -25.664062 40.53125 -25.09375 C 41.070312 -24.53125 41.785156 -24.25 42.671875 -24.25 C 43.554688 -24.25 44.300781 -24.53125 44.90625 -25.09375 C 45.519531 -25.664062 45.828125 -26.414062 45.828125 -27.34375 L 45.828125 -39.734375 C 45.828125 -40.585938 45.519531 -41.296875 44.90625 -41.859375 C 44.300781 -42.429688 43.554688 -42.71875 42.671875 -42.71875 C 41.785156 -42.71875 41.070312 -42.429688 40.53125 -41.859375 C 40 -41.296875 39.734375 -40.585938 39.734375 -39.734375 Z M 39.734375 -39.734375 "/></g></g></g><g fill="#fe5a5f" fill-opacity="1"><g transform="translate(582.732072, 262.447405)"><g><path d="M 44.328125 -73.8125 L 79.46875 -73.8125 L 79.46875 -32.796875 C 79.46875 -21.253906 76.53125 -12.722656 70.65625 -7.203125 C 64.78125 -1.691406 55.4375 1.0625 42.625 1.0625 L 39.84375 1.0625 C 27.09375 1.0625 17.78125 -1.710938 11.90625 -7.265625 C 6.03125 -12.816406 3.09375 -21.328125 3.09375 -32.796875 L 3.09375 -73.8125 L 38.125 -73.8125 L 38.125 -28.84375 C 38.125 -27.914062 38.410156 -27.179688 38.984375 -26.640625 C 39.554688 -26.109375 40.285156 -25.84375 41.171875 -25.84375 C 42.066406 -25.84375 42.816406 -26.128906 43.421875 -26.703125 C 44.023438 -27.273438 44.328125 -27.988281 44.328125 -28.84375 Z M 44.328125 -73.8125 "/></g></g></g><g fill="#fe5a5f" fill-opacity="1"><g transform="translate(668.494727, 262.447405)"><g><path d="M 3.09375 -73.8125 L 35.78125 -73.8125 L 42.515625 -51.796875 L 42.515625 -73.8125 L 75.40625 -73.8125 L 75.40625 0 L 42.515625 0 L 36.84375 -21.578125 L 36.84375 0 L 3.09375 0 Z M 3.09375 -73.8125 "/></g></g></g><g fill="#fe5a5f" fill-opacity="1"><g transform="translate(750.305705, 262.447405)"><g><path d="M 3.09375 -73.8125 L 41.65625 -73.8125 C 53.550781 -73.8125 62.648438 -70.960938 68.953125 -65.265625 C 75.253906 -59.566406 78.40625 -50.273438 78.40625 -37.390625 C 78.40625 -12.460938 65.65625 0 40.15625 0 L 3.09375 0 Z M 38.984375 -42.71875 L 38.984375 -24.25 L 41.984375 -24.25 C 42.835938 -24.25 43.566406 -24.53125 44.171875 -25.09375 C 44.773438 -25.664062 45.078125 -26.414062 45.078125 -27.34375 L 45.078125 -39.734375 C 45.078125 -40.585938 44.773438 -41.296875 44.171875 -41.859375 C 43.566406 -42.429688 42.835938 -42.71875 41.984375 -42.71875 Z M 38.984375 -42.71875 "/></g></g></g><g fill="#fe5a5f" fill-opacity="1"><g transform="translate(147.830804, 517.943147)"><g><path d="M 3.09375 -73.8125 L 35.78125 -73.8125 L 42.515625 -51.796875 L 42.515625 -73.8125 L 75.40625 -73.8125 L 75.40625 0 L 42.515625 0 L 36.84375 -21.578125 L 36.84375 0 L 3.09375 0 Z M 3.09375 -73.8125 "/></g></g></g><g fill="#fe5a5f" fill-opacity="1"><g transform="translate(229.641786, 517.943147)"><g><path d="M 38.34375 -74.875 L 47.21875 -74.875 C 60.03125 -74.875 69.351562 -71.847656 75.1875 -65.796875 C 81.03125 -59.742188 83.953125 -50.238281 83.953125 -37.28125 C 83.953125 -24.320312 81.015625 -14.691406 75.140625 -8.390625 C 69.265625 -2.085938 59.957031 1.0625 47.21875 1.0625 L 38.34375 1.0625 C 25.59375 1.0625 16.265625 -2.085938 10.359375 -8.390625 C 4.453125 -14.691406 1.5 -24.320312 1.5 -37.28125 C 1.5 -50.238281 4.4375 -59.742188 10.3125 -65.796875 C 16.1875 -71.847656 25.53125 -74.875 38.34375 -74.875 Z M 39.734375 -39.734375 L 39.734375 -27.34375 C 39.734375 -26.414062 40 -25.664062 40.53125 -25.09375 C 41.070312 -24.53125 41.785156 -24.25 42.671875 -24.25 C 43.554688 -24.25 44.300781 -24.53125 44.90625 -25.09375 C 45.519531 -25.664062 45.828125 -26.414062 45.828125 -27.34375 L 45.828125 -39.734375 C 45.828125 -40.585938 45.519531 -41.296875 44.90625 -41.859375 C 44.300781 -42.429688 43.554688 -42.71875 42.671875 -42.71875 C 41.785156 -42.71875 41.070312 -42.429688 40.53125 -41.859375 C 40 -41.296875 39.734375 -40.585938 39.734375 -39.734375 Z M 39.734375 -39.734375 "/></g></g></g><g fill="#fe5a5f" fill-opacity="1"><g transform="translate(318.501749, 517.943147)"><g><path d="M 3.09375 -42.71875 L 3.09375 -73.8125 L 68.890625 -73.8125 L 68.890625 -42.71875 L 55.859375 -42.71875 L 55.859375 0 L 15.921875 0 L 15.921875 -42.71875 Z M 3.09375 -42.71875 "/></g></g></g><g fill="#fe5a5f" fill-opacity="1"><g transform="translate(393.797765, 517.943147)"><g/></g></g><g fill="#fe5a5f" fill-opacity="1"><g transform="translate(427.654325, 517.943147)"><g><path d="M 1.5 -73.8125 L 61.421875 -73.8125 L 61.421875 -42.71875 L 38.34375 -42.71875 L 38.34375 -38.453125 L 61.421875 -38.453125 L 61.421875 -23.5 L 38.34375 -23.5 L 38.34375 0 L 1.5 0 Z M 1.5 -73.8125 "/></g></g></g><g fill="#fe5a5f" fill-opacity="1"><g transform="translate(493.872113, 517.943147)"><g><path d="M 38.34375 -74.875 L 47.21875 -74.875 C 60.03125 -74.875 69.351562 -71.847656 75.1875 -65.796875 C 81.03125 -59.742188 83.953125 -50.238281 83.953125 -37.28125 C 83.953125 -24.320312 81.015625 -14.691406 75.140625 -8.390625 C 69.265625 -2.085938 59.957031 1.0625 47.21875 1.0625 L 38.34375 1.0625 C 25.59375 1.0625 16.265625 -2.085938 10.359375 -8.390625 C 4.453125 -14.691406 1.5 -24.320312 1.5 -37.28125 C 1.5 -50.238281 4.4375 -59.742188 10.3125 -65.796875 C 16.1875 -71.847656 25.53125 -74.875 38.34375 -74.875 Z M 39.734375 -39.734375 L 39.734375 -27.34375 C 39.734375 -26.414062 40 -25.664062 40.53125 -25.09375 C 41.070312 -24.53125 41.785156 -24.25 42.671875 -24.25 C 43.554688 -24.25 44.300781 -24.53125 44.90625 -25.09375 C 45.519531 -25.664062 45.828125 -26.414062 45.828125 -27.34375 L 45.828125 -39.734375 C 45.828125 -40.585938 45.519531 -41.296875 44.90625 -41.859375 C 44.300781 -42.429688 43.554688 -42.71875 42.671875 -42.71875 C 41.785156 -42.71875 41.070312 -42.429688 40.53125 -41.859375 C 40 -41.296875 39.734375 -40.585938 39.734375 -39.734375 Z M 39.734375 -39.734375 "/></g></g></g><g fill="#fe5a5f" fill-opacity="1"><g transform="translate(582.732072, 517.943147)"><g><path d="M 44.328125 -73.8125 L 79.46875 -73.8125 L 79.46875 -32.796875 C 79.46875 -21.253906 76.53125 -12.722656 70.65625 -7.203125 C 64.78125 -1.691406 55.4375 1.0625 42.625 1.0625 L 39.84375 1.0625 C 27.09375 1.0625 17.78125 -1.710938 11.90625 -7.265625 C 6.03125 -12.816406 3.09375 -21.328125 3.09375 -32.796875 L 3.09375 -73.8125 L 38.125 -73.8125 L 38.125 -28.84375 C 38.125 -27.914062 38.410156 -27.179688 38.984375 -26.640625 C 39.554688 -26.109375 40.285156 -25.84375 41.171875 -25.84375 C 42.066406 -25.84375 42.816406 -26.128906 43.421875 -26.703125 C 44.023438 -27.273438 44.328125 -27.988281 44.328125 -28.84375 Z M 44.328125 -73.8125 "/></g></g></g><g fill="#fe5a5f" fill-opacity="1"><g transform="translate(668.494727, 517.943147)"><g><path d="M 3.09375 -73.8125 L 35.78125 -73.8125 L 42.515625 -51.796875 L 42.515625 -73.8125 L 75.40625 -73.8125 L 75.40625 0 L 42.515625 0 L 36.84375 -21.578125 L 36.84375 0 L 3.09375 0 Z M 3.09375 -73.8125 "/></g></g></g><g fill="#fe5a5f" fill-opacity="1"><g transform="translate(750.305705, 517.943147)"><g><path d="M 3.09375 -73.8125 L 41.65625 -73.8125 C 53.550781 -73.8125 62.648438 -70.960938 68.953125 -65.265625 C 75.253906 -59.566406 78.40625 -50.273438 78.40625 -37.390625 C 78.40625 -12.460938 65.65625 0 40.15625 0 L 3.09375 0 Z M 38.984375 -42.71875 L 38.984375 -24.25 L 41.984375 -24.25 C 42.835938 -24.25 43.566406 -24.53125 44.171875 -25.09375 C 44.773438 -25.664062 45.078125 -26.414062 45.078125 -27.34375 L 45.078125 -39.734375 C 45.078125 -40.585938 44.773438 -41.296875 44.171875 -41.859375 C 43.566406 -42.429688 42.835938 -42.71875 41.984375 -42.71875 Z M 38.984375 -42.71875 "/></g></g></g><g fill="#fe5a5f" fill-opacity="1"><g transform="translate(147.830804, 773.438893)"><g><path d="M 3.09375 -73.8125 L 35.78125 -73.8125 L 42.515625 -51.796875 L 42.515625 -73.8125 L 75.40625 -73.8125 L 75.40625 0 L 42.515625 0 L 36.84375 -21.578125 L 36.84375 0 L 3.09375 0 Z M 3.09375 -73.8125 "/></g></g></g><g fill="#fe5a5f" fill-opacity="1"><g transform="translate(229.641786, 773.438893)"><g><path d="M 38.34375 -74.875 L 47.21875 -74.875 C 60.03125 -74.875 69.351562 -71.847656 75.1875 -65.796875 C 81.03125 -59.742188 83.953125 -50.238281 83.953125 -37.28125 C 83.953125 -24.320312 81.015625 -14.691406 75.140625 -8.390625 C 69.265625 -2.085938 59.957031 1.0625 47.21875 1.0625 L 38.34375 1.0625 C 25.59375 1.0625 16.265625 -2.085938 10.359375 -8.390625 C 4.453125 -14.691406 1.5 -24.320312 1.5 -37.28125 C 1.5 -50.238281 4.4375 -59.742188 10.3125 -65.796875 C 16.1875 -71.847656 25.53125 -74.875 38.34375 -74.875 Z M 39.734375 -39.734375 L 39.734375 -27.34375 C 39.734375 -26.414062 40 -25.664062 40.53125 -25.09375 C 41.070312 -24.53125 41.785156 -24.25 42.671875 -24.25 C 43.554688 -24.25 44.300781 -24.53125 44.90625 -25.09375 C 45.519531 -25.664062 45.828125 -26.414062 45.828125 -27.34375 L 45.828125 -39.734375 C 45.828125 -40.585938 45.519531 -41.296875 44.90625 -41.859375 C 44.300781 -42.429688 43.554688 -42.71875 42.671875 -42.71875 C 41.785156 -42.71875 41.070312 -42.429688 40.53125 -41.859375 C 40 -41.296875 39.734375 -40.585938 39.734375 -39.734375 Z M 39.734375 -39.734375 "/></g></g></g><g fill="#fe5a5f" fill-opacity="1"><g transform="translate(318.501749, 773.438893)"><g><path d="M 3.09375 -42.71875 L 3.09375 -73.8125 L 68.890625 -73.8125 L 68.890625 -42.71875 L 55.859375 -42.71875 L 55.859375 0 L 15.921875 0 L 15.921875 -42.71875 Z M 3.09375 -42.71875 "/></g></g></g><g fill="#fe5a5f" fill-opacity="1"><g transform="translate(393.797765, 773.438893)"><g/></g></g><g fill="#fe5a5f" fill-opacity="1"><g transform="translate(427.654325, 773.438893)"><g><path d="M 1.5 -73.8125 L 61.421875 -73.8125 L 61.421875 -42.71875 L 38.34375 -42.71875 L 38.34375 -38.453125 L 61.421875 -38.453125 L 61.421875 -23.5 L 38.34375 -23.5 L 38.34375 0 L 1.5 0 Z M 1.5 -73.8125 "/></g></g></g><g fill="#fe5a5f" fill-opacity="1"><g transform="translate(493.872113, 773.438893)"><g><path d="M 38.34375 -74.875 L 47.21875 -74.875 C 60.03125 -74.875 69.351562 -71.847656 75.1875 -65.796875 C 81.03125 -59.742188 83.953125 -50.238281 83.953125 -37.28125 C 83.953125 -24.320312 81.015625 -14.691406 75.140625 -8.390625 C 69.265625 -2.085938 59.957031 1.0625 47.21875 1.0625 L 38.34375 1.0625 C 25.59375 1.0625 16.265625 -2.085938 10.359375 -8.390625 C 4.453125 -14.691406 1.5 -24.320312 1.5 -37.28125 C 1.5 -50.238281 4.4375 -59.742188 10.3125 -65.796875 C 16.1875 -71.847656 25.53125 -74.875 38.34375 -74.875 Z M 39.734375 -39.734375 L 39.734375 -27.34375 C 39.734375 -26.414062 40 -25.664062 40.53125 -25.09375 C 41.070312 -24.53125 41.785156 -24.25 42.671875 -24.25 C 43.554688 -24.25 44.300781 -24.53125 44.90625 -25.09375 C 45.519531 -25.664062 45.828125 -26.414062 45.828125 -27.34375 L 45.828125 -39.734375 C 45.828125 -40.585938 45.519531 -41.296875 44.90625 -41.859375 C 44.300781 -42.429688 43.554688 -42.71875 42.671875 -42.71875 C 41.785156 -42.71875 41.070312 -42.429688 40.53125 -41.859375 C 40 -41.296875 39.734375 -40.585938 39.734375 -39.734375 Z M 39.734375 -39.734375 "/></g></g></g><g fill="#fe5a5f" fill-opacity="1"><g transform="translate(582.732072, 773.438893)"><g><path d="M 44.328125 -73.8125 L 79.46875 -73.8125 L 79.46875 -32.796875 C 79.46875 -21.253906 76.53125 -12.722656 70.65625 -7.203125 C 64.78125 -1.691406 55.4375 1.0625 42.625 1.0625 L 39.84375 1.0625 C 27.09375 1.0625 17.78125 -1.710938 11.90625 -7.265625 C 6.03125 -12.816406 3.09375 -21.328125 3.09375 -32.796875 L 3.09375 -73.8125 L 38.125 -73.8125 L 38.125 -28.84375 C 38.125 -27.914062 38.410156 -27.179688 38.984375 -26.640625 C 39.554688 -26.109375 40.285156 -25.84375 41.171875 -25.84375 C 42.066406 -25.84375 42.816406 -26.128906 43.421875 -26.703125 C 44.023438 -27.273438 44.328125 -27.988281 44.328125 -28.84375 Z M 44.328125 -73.8125 "/></g></g></g><g fill="#fe5a5f" fill-opacity="1"><g transform="translate(668.494727, 773.438893)"><g><path d="M 3.09375 -73.8125 L 35.78125 -73.8125 L 42.515625 -51.796875 L 42.515625 -73.8125 L 75.40625 -73.8125 L 75.40625 0 L 42.515625 0 L 36.84375 -21.578125 L 36.84375 0 L 3.09375 0 Z M 3.09375 -73.8125 "/></g></g></g><g fill="#fe5a5f" fill-opacity="1"><g transform="translate(750.305705, 773.438893)"><g><path d="M 3.09375 -73.8125 L 41.65625 -73.8125 C 53.550781 -73.8125 62.648438 -70.960938 68.953125 -65.265625 C 75.253906 -59.566406 78.40625 -50.273438 78.40625 -37.390625 C 78.40625 -12.460938 65.65625 0 40.15625 0 L 3.09375 0 Z M 38.984375 -42.71875 L 38.984375 -24.25 L 41.984375 -24.25 C 42.835938 -24.25 43.566406 -24.53125 44.171875 -25.09375 C 44.773438 -25.664062 45.078125 -26.414062 45.078125 -27.34375 L 45.078125 -39.734375 C 45.078125 -40.585938 44.773438 -41.296875 44.171875 -41.859375 C 43.566406 -42.429688 42.835938 -42.71875 41.984375 -42.71875 Z M 38.984375 -42.71875 "/></g></g></g><path fill="#a96f7c" d="M 574.660156 549.8125 C 569.714844 549.8125 565.492188 550.371094 562.757812 551.492188 C 559.4375 552.863281 559.96875 554.21875 560.25 554.945312 C 562.625 561.027344 584.625 562.824219 606.398438 558.707031 C 607.679688 558.46875 608.902344 558.214844 610.070312 557.957031 C 600.410156 552.59375 585.730469 549.8125 574.660156 549.8125 M 647.921875 572.988281 C 645.972656 572.988281 643.792969 573.699219 641.558594 575.046875 C 644.921875 574.683594 648.445312 574.507812 652.101562 574.582031 C 651.59375 574.050781 651.003906 573.648438 650.34375 573.40625 C 649.589844 573.125 648.777344 572.988281 647.921875 572.988281 M 643.988281 579.695312 C 647.519531 579.695312 651.007812 580.140625 654.292969 580.992188 C 654.269531 580.324219 654.207031 579.683594 654.101562 579.078125 C 647.226562 578.773438 640.917969 579.347656 635.207031 580.5 L 635.054688 580.667969 C 637.984375 580.015625 641 579.695312 643.988281 579.695312 M 617.773438 586.492188 C 617.875 587.835938 617.855469 589.1875 617.734375 590.523438 C 620.496094 587.359375 623.890625 584.933594 627.625 583.183594 C 627.824219 582.878906 628.023438 582.574219 628.226562 582.269531 C 624.394531 583.460938 620.90625 584.898438 617.773438 586.492188 M 590.40625 571.207031 C 578.382812 571.207031 567.300781 576.414062 565.191406 581.5625 C 564.195312 583.988281 565.660156 586.222656 569.542969 588.207031 C 580.28125 593.710938 600.964844 590.691406 612.554688 582.535156 C 611.230469 578.65625 608.144531 574.933594 601.671875 572.882812 C 597.988281 571.714844 594.152344 571.207031 590.40625 571.207031 M 613.410156 588.945312 C 604.71875 594.324219 599.710938 600.660156 599.050781 604.621094 C 598.722656 606.5625 599.570312 606.984375 600.398438 607.226562 C 604.3125 608.425781 610.039062 602.542969 612.367188 594.949219 C 612.75 593.691406 613.300781 591.503906 613.410156 588.945312 M 630.640625 586.761719 C 625.996094 594.550781 623.519531 604.257812 626.601562 611.894531 C 626.730469 612.210938 626.871094 612.519531 627.019531 612.828125 C 644.621094 605.148438 652.175781 593.714844 653.886719 585.480469 C 646.644531 583.449219 637.949219 583.722656 630.640625 586.761719 M 623.578125 591.007812 C 621.890625 592.429688 620.386719 594.082031 619.140625 595.984375 C 614.640625 602.832031 612.347656 610.449219 612.34375 617.664062 C 616.167969 616.746094 619.679688 615.675781 622.902344 614.488281 C 622.753906 614.179688 622.621094 613.867188 622.496094 613.554688 C 619.675781 606.578125 620.597656 598.433594 623.578125 591.007812 M 629.5625 616.695312 C 634.574219 622.566406 643.523438 626.101562 652.238281 625.167969 C 661.855469 624.117188 668.355469 617.730469 670.0625 607.640625 C 672.164062 595.195312 663.21875 589.300781 658.097656 586.996094 C 655.699219 597.605469 646.882812 609.046875 629.5625 616.695312 M 612.652344 622.195312 C 613.214844 626.261719 614.5625 630.121094 616.699219 633.527344 C 623.714844 644.707031 637.691406 649.546875 656.023438 647.082031 C 677.34375 644.265625 686.179688 627.054688 685.484375 611.257812 C 684.851562 597.042969 676.292969 582.367188 658.636719 579.535156 C 658.730469 580.464844 658.757812 581.433594 658.71875 582.4375 C 670.515625 587.171875 676.382812 596.851562 674.429688 608.382812 C 672.371094 620.574219 664.457031 628.300781 652.71875 629.574219 C 642.078125 630.738281 631.089844 626.035156 625.296875 618.4375 C 621.453125 619.878906 617.246094 621.144531 612.652344 622.195312 M 646.953125 652.148438 C 626.5 652.152344 616.980469 642.320312 612.945312 635.886719 C 610.523438 632.023438 608.980469 627.671875 608.308594 623.097656 C 600.136719 624.640625 590.855469 625.53125 580.371094 625.566406 C 579.824219 625.566406 579.277344 625.566406 578.730469 625.566406 C 513.941406 625.570312 433.710938 611.902344 411.21875 586.3125 C 406.164062 580.558594 404.03125 574.359375 404.890625 567.890625 C 406.3125 557.191406 412.390625 549.152344 422.480469 544.648438 C 443.355469 535.328125 475.4375 542.800781 485.945312 549.980469 L 483.441406 553.644531 C 473.917969 547.132812 443.449219 540.144531 424.289062 548.699219 C 415.554688 552.597656 410.507812 559.25 409.289062 568.464844 C 408.597656 573.691406 410.320312 578.566406 414.546875 583.382812 C 436.175781 607.992188 514.894531 621.132812 578.699219 621.132812 C 579.257812 621.132812 579.796875 621.132812 580.351562 621.128906 C 590.863281 621.089844 600.007812 620.175781 607.933594 618.621094 C 607.851562 615.316406 608.195312 611.941406 608.960938 608.578125 C 605.972656 611.175781 602.539062 612.492188 599.125 611.476562 C 595.710938 610.460938 594.050781 607.617188 594.675781 603.882812 C 595.214844 600.664062 597.640625 596.601562 601.730469 592.535156 C 589.839844 596.273438 576.121094 596.550781 567.527344 592.160156 C 558.964844 587.785156 560.175781 582.113281 561.089844 579.875 C 564.976562 570.40625 586.003906 563.28125 603.003906 568.648438 C 609.957031 570.855469 614.039062 574.898438 616.109375 579.578125 C 620.160156 575.535156 621.246094 571.257812 619.335938 566.847656 C 618.453125 564.832031 616.960938 562.988281 615.011719 561.316406 C 612.242188 562.050781 609.546875 562.632812 607.21875 563.074219 C 589.734375 566.359375 560.40625 567.511719 556.128906 556.558594 C 554.625 552.714844 556.472656 549.292969 561.0625 547.394531 C 571.933594 542.914062 601.140625 546.023438 615.839844 556.460938 C 624.285156 553.953125 628.75 550.984375 628.75 548.960938 C 628.75 541.675781 605.207031 535.992188 588.492188 534.277344 L 588.941406 529.867188 C 596.332031 530.617188 633.1875 535.09375 633.1875 548.960938 C 633.1875 553.941406 626.910156 557.472656 619.839844 559.867188 C 621.375 561.476562 622.589844 563.210938 623.394531 565.078125 C 625.589844 570.132812 624.9375 575.292969 621.609375 579.945312 C 625.074219 578.5625 628.839844 577.382812 632.882812 576.476562 L 633.023438 576.328125 C 639.382812 569.761719 646.265625 567.195312 651.871094 569.238281 C 654.40625 570.171875 656.332031 572.183594 657.488281 574.898438 C 678.746094 577.367188 689.199219 595.007812 689.910156 611.0625 C 690.671875 628.304688 680.578125 648.308594 656.601562 651.488281 C 653.140625 651.945312 649.933594 652.148438 646.953125 652.148438 " fill-opacity="1" fill-rule="nonzero"/><path fill="#ffa794" d="M 387.980469 606.695312 L 396.816406 628.867188 C 396.816406 628.867188 534.226562 632.621094 607.566406 628.867188 L 617.289062 606.695312 L 387.980469 606.695312 " fill-opacity="1" fill-rule="evenodd"/><path fill="#ffdcae" d="M 454.253906 563.398438 L 387.980469 606.695312 C 387.980469 606.695312 517.875 620.257812 617.289062 606.695312 L 557.644531 567.828125 L 454.253906 563.398438 " fill-opacity="1" fill-rule="evenodd"/><path fill="#ee8b88" d="M 450.316406 580.824219 L 443.296875 588.0625 C 443.296875 588.0625 504.253906 603.136719 568.535156 588.0625 L 563.957031 578.730469 L 450.316406 580.824219 " fill-opacity="1" fill-rule="evenodd"/><path fill="#ffc1a4" d="M 430.515625 533.863281 L 452.125 585.128906 C 452.125 585.128906 502.632812 603.175781 561.832031 585.128906 L 578.042969 536.40625 L 430.515625 533.863281 " fill-opacity="1" fill-rule="evenodd"/><path fill="#d57574" d="M 439.742188 555.75 L 432.519531 538.625 C 435.328125 538.761719 438.164062 538.898438 441.03125 539.023438 L 441.253906 539.023438 C 473.691406 540.507812 509.800781 541.570312 547.273438 541.570312 C 550.117188 541.570312 552.960938 541.566406 555.8125 541.550781 C 562.632812 541.53125 569.5 541.476562 576.386719 541.375 L 572.664062 552.554688 C 550.238281 551.667969 531.277344 551.320312 515.316406 551.320312 C 458.296875 551.320312 439.742188 555.75 439.742188 555.75 " fill-opacity="1" fill-rule="nonzero"/><path fill="#ffefd3" d="M 419.390625 586.179688 C 419.390625 586.179688 401.839844 602.121094 402.878906 605.128906 C 403.917969 608.136719 512.234375 614.761719 598.308594 605.128906 C 602.84375 604.621094 585.800781 586.179688 585.800781 586.179688 L 617.289062 606.695312 C 617.289062 606.695312 575.167969 612.726562 504.519531 612.726562 C 433.871094 612.726562 387.980469 606.695312 387.980469 606.695312 L 419.390625 586.179688 " fill-opacity="1" fill-rule="evenodd"/><path fill="#ffffff" d="M 554.882812 611.484375 C 554.882812 611.484375 576.421875 592.941406 603.523438 608.839844 C 603.523438 608.839844 564.234375 610.949219 554.882812 611.484375 " fill-opacity="1" fill-rule="evenodd"/><path fill="#ee8b88" d="M 252.660156 700.734375 C 252.660156 700.734375 263.78125 707.527344 276.269531 699.382812 C 276.269531 699.382812 285.175781 671.121094 275.566406 652.363281 L 251.160156 651.867188 C 251.160156 651.867188 245.070312 684.089844 252.660156 700.734375 " fill-opacity="1" fill-rule="evenodd"/><path fill="#ffbe9f" d="M 222.863281 641.453125 C 227.527344 636.140625 248.453125 637.277344 251.160156 651.867188 C 251.160156 651.867188 243.386719 680.65625 232.613281 698.460938 C 232.613281 698.460938 220.140625 703.550781 212.566406 689.8125 C 212.566406 689.8125 215.082031 666.363281 222.863281 641.453125 " fill-opacity="1" fill-rule="evenodd"/><path fill="#f29183" d="M 271.925781 346.398438 C 271.925781 346.398438 246.011719 455.199219 244.902344 595.78125 C 244.902344 595.78125 275.199219 607.636719 292.195312 590.683594 C 292.195312 590.683594 290.714844 450.269531 298.839844 395.9375 L 271.925781 346.398438 " fill-opacity="1" fill-rule="evenodd"/><path fill="#ffbe9f" d="M 221.84375 615.59375 C 210.601562 689.328125 318.855469 694.328125 313.441406 614.761719 L 221.84375 615.59375 " fill-opacity="1" fill-rule="evenodd"/><path fill="#ffdcae" d="M 242.246094 590.1875 C 242.246094 590.1875 228.296875 597.128906 221.84375 615.59375 C 221.84375 615.59375 262.230469 636.84375 313.441406 614.761719 C 313.441406 614.761719 310.320312 599.5625 294.707031 590.1875 C 294.707031 590.1875 267.226562 603.101562 242.246094 590.1875 " fill-opacity="1" fill-rule="evenodd"/><path fill="#ee8b88" d="M 221.84375 615.59375 C 221.84375 615.59375 235.582031 627.519531 267.644531 627.519531 C 299.703125 627.519531 313.441406 614.761719 313.441406 614.761719 C 313.441406 614.761719 298.664062 624.785156 267.332031 624.785156 C 236 624.785156 221.84375 615.59375 221.84375 615.59375 " fill-opacity="1" fill-rule="evenodd"/><path fill="#ee8b88" d="M 271.40625 665.386719 C 270.648438 669.792969 262.964844 672.144531 254.253906 670.636719 C 245.542969 669.132812 239.101562 664.332031 239.863281 659.925781 C 240.625 655.519531 248.304688 653.167969 257.011719 654.671875 C 265.722656 656.179688 272.171875 660.980469 271.40625 665.386719 " fill-opacity="1" fill-rule="evenodd"/><path fill="#ee8b88" d="M 302.050781 653.730469 C 299.628906 652.957031 300.09375 644.730469 303.078125 635.355469 C 306.070312 625.976562 310.449219 619 312.867188 619.769531 C 315.285156 620.542969 314.820312 628.765625 311.835938 638.144531 C 308.851562 647.519531 304.46875 654.5 302.050781 653.730469 " fill-opacity="1" fill-rule="evenodd"/><path fill="#ffdcae" d="M 313.441406 621.140625 C 313.441406 621.140625 331.355469 632.121094 342.808594 649.492188 C 342.808594 649.492188 344.128906 663.980469 333.941406 663.625 C 333.941406 663.625 315.835938 663.980469 305.035156 648.757812 C 303.007812 637.855469 305.101562 630.277344 313.441406 621.140625 " fill-opacity="1" fill-rule="evenodd"/><path fill="#ffdcae" d="M 240.621094 660.914062 C 243.910156 654.738281 263.988281 651.191406 269.644531 664.699219 C 269.644531 664.699219 268.382812 694.273438 261.945312 713.890625 C 261.945312 713.890625 251.199219 721.589844 241.113281 709.980469 C 241.113281 709.980469 238.523438 686.738281 240.621094 660.914062 " fill-opacity="1" fill-rule="evenodd"/><path fill="#ffe3ca" d="M 247.011719 533.066406 C 247.011719 533.066406 275.195312 527.136719 292.191406 538.234375 L 292.191406 533.066406 C 292.191406 533.066406 276.800781 523.785156 247.277344 528.746094 L 247.011719 533.066406 " fill-opacity="1" fill-rule="evenodd"/><path fill="#ffe3ca" d="M 251.441406 478.796875 C 251.441406 478.796875 267.484375 470.820312 293.273438 477.710938 L 293.417969 473.109375 C 293.417969 473.109375 269.234375 466.339844 251.746094 476.085938 L 251.441406 478.796875 " fill-opacity="1" fill-rule="evenodd"/><path fill="#ffe3ca" d="M 259.847656 411.640625 C 259.847656 411.640625 277.3125 401.480469 297.128906 409.984375 L 297.128906 406.59375 C 297.128906 406.59375 278.195312 398.3125 260.234375 409.117188 L 259.847656 411.640625 " fill-opacity="1" fill-rule="evenodd"/><path fill="#ffffff" d="M 259.847656 695.605469 C 259.847656 695.605469 253.734375 705.308594 259.847656 711.410156 C 259.847656 711.410156 263.433594 704.476562 259.847656 695.605469 " fill-opacity="1" fill-rule="evenodd"/><path fill="#ffffff" d="M 331.355469 643.71875 C 331.355469 643.71875 333.015625 652.085938 339.945312 650.144531 C 339.945312 650.144531 339.113281 644.226562 331.355469 643.71875 " fill-opacity="1" fill-rule="evenodd"/><path fill="#d593a2" d="M 309.8125 605.78125 C 308.871094 604.085938 307.703125 602.265625 306.269531 600.417969 C 308.863281 603.519531 309.71875 605.539062 309.8125 605.78125 M 291.265625 591.566406 C 291.304688 591.53125 291.339844 591.5 291.378906 591.460938 C 293.53125 590.730469 294.707031 590.1875 294.707031 590.1875 C 294.707031 590.1875 293.464844 590.769531 291.265625 591.566406 " fill-opacity="1" fill-rule="nonzero"/><path fill="#ce5d64" d="M 266.949219 595.925781 C 261.101562 595.925781 254.777344 595.113281 248.457031 592.875 C 248.410156 592.847656 248.386719 592.832031 248.386719 592.832031 C 255.363281 594.554688 261.863281 595.183594 267.667969 595.183594 C 278.582031 595.183594 287.007812 592.941406 291.378906 591.460938 C 291.339844 591.5 291.304688 591.53125 291.265625 591.566406 C 286.574219 593.265625 277.535156 595.925781 266.949219 595.925781 " fill-opacity="1" fill-rule="nonzero"/><path fill="#d58279" d="M 309.820312 605.800781 C 271.324219 605.011719 249.835938 593.628906 248.457031 592.875 C 254.777344 595.113281 261.101562 595.925781 266.949219 595.925781 C 277.535156 595.925781 286.574219 593.265625 291.265625 591.566406 C 293.464844 590.769531 294.707031 590.1875 294.707031 590.1875 C 300.351562 594.117188 303.988281 597.6875 306.269531 600.417969 C 307.703125 602.265625 308.871094 604.085938 309.8125 605.78125 C 309.820312 605.792969 309.820312 605.800781 309.820312 605.800781 " fill-opacity="1" fill-rule="nonzero"/><path fill="#ffffff" d="M 227.449219 611.484375 C 227.449219 611.484375 231.097656 601.175781 239.800781 598.769531 C 239.800781 598.769531 236.039062 609.421875 227.449219 611.484375 " fill-opacity="1" fill-rule="evenodd"/><path fill="#c85d64" d="M 292.191406 508.972656 L 281.453125 475.425781 C 283.917969 475.71875 286.503906 476.140625 289.21875 476.730469 C 290.308594 481.273438 291.4375 485.816406 292.601562 490.363281 L 292.191406 508.972656 M 288.09375 471.96875 C 285.898438 471.589844 283.136719 471.214844 280.039062 470.996094 L 260.871094 411.101562 C 262.980469 410.058594 268.203125 407.785156 275.148438 406.929688 C 278.679688 428.140625 282.949219 450.007812 288.09375 471.96875 M 260.234375 409.117188 L 268.765625 363.363281 C 270.4375 376.496094 272.394531 390.089844 274.664062 403.992188 C 270.046875 404.660156 265.105469 406.183594 260.234375 409.117188 " fill-opacity="1" fill-rule="nonzero"/><path fill="#ce8687" d="M 289.21875 476.730469 C 286.503906 476.140625 283.917969 475.71875 281.453125 475.425781 L 280.039062 470.996094 C 283.136719 471.214844 285.898438 471.589844 288.09375 471.96875 C 288.460938 473.550781 288.835938 475.144531 289.21875 476.730469 " fill-opacity="1" fill-rule="nonzero"/><path fill="#ce8687" d="M 260.871094 411.101562 L 260.234375 409.117188 C 265.105469 406.183594 270.046875 404.660156 274.664062 403.992188 C 274.824219 404.96875 274.984375 405.949219 275.148438 406.929688 C 268.203125 407.785156 262.980469 410.058594 260.871094 411.101562 " fill-opacity="1" fill-rule="nonzero"/><path fill="#ee8b88" d="M 753.230469 702.941406 C 753.230469 702.941406 742.109375 709.730469 729.625 701.589844 C 729.625 701.589844 720.722656 673.324219 730.328125 654.570312 L 754.734375 654.074219 C 754.734375 654.074219 760.824219 686.292969 753.230469 702.941406 " fill-opacity="1" fill-rule="evenodd"/><path fill="#ffbe9f" d="M 783.03125 643.660156 C 778.367188 638.34375 757.441406 639.484375 754.734375 654.074219 C 754.734375 654.074219 762.503906 682.863281 773.28125 700.667969 C 773.28125 700.667969 785.753906 705.753906 793.328125 692.019531 C 793.328125 692.019531 790.8125 668.570312 783.03125 643.660156 " fill-opacity="1" fill-rule="evenodd"/><path fill="#f29183" d="M 733.96875 348.605469 C 733.96875 348.605469 759.882812 457.40625 760.992188 597.984375 C 760.992188 597.984375 730.695312 609.84375 713.703125 592.886719 C 713.703125 592.886719 715.179688 452.476562 707.050781 398.144531 L 733.96875 348.605469 " fill-opacity="1" fill-rule="evenodd"/><path fill="#ffbe9f" d="M 784.054688 617.804688 C 795.292969 691.535156 687.039062 696.535156 692.453125 616.96875 L 784.054688 617.804688 " fill-opacity="1" fill-rule="evenodd"/><path fill="#ffdcae" d="M 763.648438 592.394531 C 763.648438 592.394531 777.597656 599.335938 784.054688 617.804688 C 784.054688 617.804688 743.664062 639.050781 692.453125 616.96875 C 692.453125 616.96875 695.574219 601.765625 711.1875 592.394531 C 711.1875 592.394531 738.667969 605.304688 763.648438 592.394531 " fill-opacity="1" fill-rule="evenodd"/><path fill="#ee8b88" d="M 784.054688 617.804688 C 784.054688 617.804688 770.308594 629.726562 738.25 629.726562 C 706.191406 629.726562 692.453125 616.96875 692.453125 616.96875 C 692.453125 616.96875 707.230469 626.992188 738.5625 626.992188 C 769.890625 626.992188 784.054688 617.804688 784.054688 617.804688 " fill-opacity="1" fill-rule="evenodd"/><path fill="#ee8b88" d="M 734.488281 667.59375 C 735.246094 672 742.929688 674.351562 751.640625 672.84375 C 760.351562 671.335938 766.792969 666.539062 766.03125 662.132812 C 765.269531 657.722656 757.59375 655.371094 748.878906 656.878906 C 740.167969 658.386719 733.726562 663.183594 734.488281 667.59375 " fill-opacity="1" fill-rule="evenodd"/><path fill="#ee8b88" d="M 703.84375 655.933594 C 706.257812 655.164062 705.800781 646.9375 702.816406 637.558594 C 699.824219 628.183594 695.445312 621.203125 693.027344 621.976562 C 690.609375 622.75 691.074219 630.972656 694.058594 640.351562 C 697.046875 649.730469 701.425781 656.707031 703.84375 655.933594 " fill-opacity="1" fill-rule="evenodd"/><path fill="#ffdcae" d="M 692.453125 623.347656 C 692.453125 623.347656 674.539062 634.332031 663.085938 651.703125 C 663.085938 651.703125 661.765625 666.183594 671.957031 665.832031 C 671.957031 665.832031 690.054688 666.183594 700.859375 650.964844 C 702.886719 640.0625 700.789062 632.484375 692.453125 623.347656 " fill-opacity="1" fill-rule="evenodd"/><g clip-path="url(#d8e7ec55d1)"><path fill="#ffdcae" d="M 765.277344 663.121094 C 761.984375 656.941406 741.90625 653.398438 736.25 666.90625 C 736.25 666.90625 737.511719 696.484375 743.949219 716.097656 C 743.949219 716.097656 754.691406 723.792969 764.777344 712.1875 C 764.777344 712.1875 767.371094 688.949219 765.277344 663.121094 " fill-opacity="1" fill-rule="evenodd"/></g><path fill="#ffe3ca" d="M 758.878906 535.273438 C 758.878906 535.273438 730.699219 529.339844 713.703125 540.441406 L 713.703125 535.273438 C 713.703125 535.273438 729.09375 525.992188 758.617188 530.957031 L 758.878906 535.273438 " fill-opacity="1" fill-rule="evenodd"/><path fill="#ffe3ca" d="M 754.453125 481 C 754.453125 481 738.410156 473.027344 712.621094 479.921875 L 712.472656 475.3125 C 712.472656 475.3125 736.660156 468.546875 754.148438 478.292969 L 754.453125 481 " fill-opacity="1" fill-rule="evenodd"/><path fill="#ffe3ca" d="M 746.042969 413.847656 C 746.042969 413.847656 728.582031 403.6875 708.761719 412.1875 L 708.761719 408.796875 C 708.761719 408.796875 727.695312 400.519531 745.660156 411.320312 L 746.042969 413.847656 " fill-opacity="1" fill-rule="evenodd"/><path fill="#ffffff" d="M 746.042969 697.8125 C 746.042969 697.8125 752.160156 707.515625 746.042969 713.613281 C 746.042969 713.613281 742.464844 706.6875 746.042969 697.8125 " fill-opacity="1" fill-rule="evenodd"/><path fill="#ffffff" d="M 674.539062 645.925781 C 674.539062 645.925781 672.878906 654.292969 665.949219 652.347656 C 665.949219 652.347656 666.785156 646.433594 674.539062 645.925781 " fill-opacity="1" fill-rule="evenodd"/><path fill="#d593a2" d="M 779.480469 608.007812 C 779.460938 608.007812 779.433594 608.007812 779.414062 608.007812 C 773.316406 598.082031 765.632812 593.476562 763.972656 592.566406 C 764.234375 592.453125 764.367188 592.394531 764.367188 592.394531 C 776.855469 601.089844 779.480469 608.007812 779.480469 608.007812 " fill-opacity="1" fill-rule="nonzero"/><path fill="#ce5d64" d="M 738.945312 598.132812 C 731.753906 598.132812 725.273438 596.902344 720.386719 595.578125 C 726.480469 596.890625 732.179688 597.390625 737.324219 597.390625 C 748.070312 597.390625 756.394531 595.222656 760.828125 593.738281 C 753.390625 597 745.839844 598.132812 738.945312 598.132812 " fill-opacity="1" fill-rule="nonzero"/><path fill="#d58279" d="M 779.414062 608.007812 C 739.636719 607.179688 718.046875 595.039062 718.046875 595.039062 C 718.832031 595.234375 719.609375 595.417969 720.386719 595.578125 C 725.273438 596.902344 731.753906 598.132812 738.945312 598.132812 C 745.839844 598.132812 753.390625 597 760.828125 593.738281 C 762.371094 593.222656 763.441406 592.792969 763.972656 592.566406 C 765.632812 593.476562 773.316406 598.082031 779.414062 608.007812 " fill-opacity="1" fill-rule="nonzero"/><path fill="#c85d64" d="M 713.703125 505.160156 L 713.351562 490.894531 C 714.417969 487.105469 715.492188 483.121094 716.582031 478.957031 C 718.617188 478.507812 720.589844 478.160156 722.492188 477.886719 L 713.703125 505.160156 M 717.808594 474.175781 C 722.558594 455.4375 727.371094 433.378906 731.628906 409.253906 C 736.863281 410.003906 741.039062 411.527344 743.523438 412.613281 L 723.949219 473.363281 C 721.625 473.578125 719.539062 473.878906 717.808594 474.175781 " fill-opacity="1" fill-rule="nonzero"/><path fill="#ce93a2" d="M 745.097656 407.726562 C 744.148438 401.75 743.21875 396.164062 742.320312 391 L 745.417969 406.71875 L 745.097656 407.726562 " fill-opacity="1" fill-rule="nonzero"/><path fill="#c85d64" d="M 744.207031 410.488281 C 740.128906 408.273438 736.027344 406.992188 732.136719 406.339844 C 733.550781 398.191406 734.898438 389.816406 736.160156 381.253906 C 736.765625 377.085938 737.351562 372.875 737.910156 368.625 L 742.320312 391 C 743.21875 396.164062 744.148438 401.75 745.097656 407.726562 L 744.207031 410.488281 " fill-opacity="1" fill-rule="nonzero"/><path fill="#ce8687" d="M 716.582031 478.957031 C 716.988281 477.386719 717.398438 475.796875 717.808594 474.175781 C 719.539062 473.878906 721.625 473.578125 723.949219 473.363281 L 722.492188 477.886719 C 720.589844 478.160156 718.617188 478.507812 716.582031 478.957031 " fill-opacity="1" fill-rule="nonzero"/><path fill="#ce8687" d="M 743.523438 412.613281 C 741.039062 411.527344 736.863281 410.003906 731.628906 409.253906 C 731.796875 408.285156 731.96875 407.3125 732.136719 406.339844 C 736.027344 406.992188 740.128906 408.273438 744.207031 410.488281 L 743.523438 412.613281 " fill-opacity="1" fill-rule="nonzero"/><path fill="#ffb496" d="M 267.023438 215.09375 C 267.023438 215.09375 277.796875 199.425781 308.632812 189.304688 C 361.277344 172.023438 579.667969 156.144531 695.992188 181.371094 C 732.570312 189.304688 741.679688 215.09375 741.679688 215.09375 L 267.023438 215.09375 " fill-opacity="1" fill-rule="evenodd"/><path fill="#ffe1c1" d="M 263.628906 225.949219 C 262.980469 273.039062 269.792969 394.875 302.289062 508.867188 C 304.953125 518.207031 312.992188 524.90625 322.535156 525.640625 C 373.792969 529.582031 538.660156 543.808594 681.523438 530.453125 C 690.75 529.589844 697.917969 522.867188 701.140625 514.039062 C 718.113281 467.464844 747.800781 335.464844 740.5625 218.8125 C 739.898438 208.042969 731.929688 199.238281 721.457031 197.472656 C 670.238281 188.851562 511.273438 164.183594 283.128906 203.332031 C 272.089844 205.230469 263.78125 214.566406 263.628906 225.949219 " fill-opacity="1" fill-rule="evenodd"/><path fill="#ee8b88" d="M 263.628906 228.21875 C 262.980469 275.308594 269.792969 397.144531 302.289062 511.136719 C 304.953125 520.476562 312.992188 527.175781 322.535156 527.910156 C 373.792969 531.851562 538.660156 546.078125 681.523438 532.722656 C 690.75 531.859375 697.917969 525.136719 701.140625 516.308594 C 718.113281 469.734375 747.800781 337.734375 740.5625 221.082031 C 739.898438 210.320312 731.929688 201.507812 721.457031 199.742188 C 670.238281 191.121094 510.480469 170.957031 283.128906 205.601562 C 272.054688 207.289062 263.78125 216.835938 263.628906 228.21875 " fill-opacity="1" fill-rule="evenodd"/><path fill="#ffdcae" d="M 736.160156 381.253906 C 727.203125 442.109375 713.773438 493.824219 704.238281 519.554688 C 700.957031 528.425781 693.6875 535.125 684.335938 536.007812 C 642.261719 539.867188 598.28125 541.421875 555.8125 541.550781 C 515.292969 541.730469 476.144531 540.621094 441.253906 539.023438 L 441.03125 539.023438 C 386.414062 536.539062 342.257812 532.90625 319.738281 531.175781 C 311.359375 530.554688 304.175781 525.496094 300.589844 518.132812 L 299.167969 514.40625 C 266.136719 400.417969 259.222656 278.574219 259.890625 231.46875 C 260.066406 220.113281 268.441406 210.578125 279.703125 208.847656 C 334.542969 200.644531 385.484375 195.503906 432.035156 192.570312 C 581.4375 183.125 685.21875 196.433594 724.898438 202.996094 C 735.535156 204.765625 743.609375 213.597656 744.269531 224.332031 C 747.550781 276.578125 743.339844 331.886719 736.160156 381.253906 " fill-opacity="1" fill-rule="evenodd"/><path fill="#efa99f" d="M 341.613281 501.9375 C 388.472656 505.980469 529.542969 515.824219 660.839844 501.339844 C 669.550781 500.375 676.707031 493.988281 678.902344 485.398438 C 688.144531 449.222656 710.644531 350.175781 706.5625 257.652344 C 706.097656 247.234375 698.273438 238.683594 688.054688 237.386719 C 640.527344 231.351562 499.863281 218.082031 320.554688 243.117188 C 309.867188 244.609375 301.972656 253.972656 302.234375 264.898438 C 303.152344 303.003906 306.929688 392.773438 322.566406 484.160156 C 324.214844 493.785156 332.007812 501.105469 341.613281 501.9375 " fill-opacity="1" fill-rule="evenodd"/><path fill="#ffeace" d="M 733.453125 386.308594 L 701.453125 365.742188 C 705.65625 331.523438 708.167969 294.082031 706.5625 257.652344 C 706.097656 247.234375 698.273438 238.683594 688.054688 237.386719 C 688.035156 237.386719 688.015625 237.382812 687.992188 237.382812 C 687.1875 237.183594 686.367188 237.027344 685.527344 236.925781 C 659.445312 233.640625 605.019531 228.191406 531.429688 228.191406 C 517.734375 228.191406 503.363281 228.375 488.40625 228.804688 L 432.035156 192.570312 C 468.964844 190.238281 503.113281 189.292969 534.191406 189.292969 C 628.832031 189.292969 695.027344 198.054688 724.898438 202.996094 C 735.535156 204.765625 743.609375 213.597656 744.269531 224.332031 C 745.042969 236.628906 745.402344 249.09375 745.402344 261.613281 C 745.40625 302.285156 741.648438 343.507812 736.160156 381.253906 L 733.453125 386.308594 " fill-opacity="1" fill-rule="nonzero"/><path fill="#f5cbc5" d="M 701.453125 365.742188 L 698.476562 363.832031 C 701.894531 336.921875 704.234375 307.898438 704.238281 278.957031 C 704.238281 271.507812 704.082031 264.066406 703.753906 256.664062 C 703.34375 247.351562 696.828125 239.570312 687.992188 237.382812 C 688.015625 237.382812 688.035156 237.386719 688.054688 237.386719 C 698.273438 238.683594 706.097656 247.234375 706.5625 257.652344 C 708.167969 294.082031 705.65625 331.523438 701.453125 365.742188 " fill-opacity="1" fill-rule="nonzero"/><path fill="#523164" d="M 695.636719 384.179688 C 689.390625 425.789062 681.1875 460.296875 676.484375 478.523438 C 674.3125 486.863281 667.265625 493.117188 658.664062 494.046875 C 640.355469 496.046875 621.910156 497.550781 603.511719 498.660156 L 603.425781 498.707031 C 491.707031 505.535156 383.53125 497.996094 343.855469 494.625 C 334.414062 493.824219 326.699219 486.683594 325.101562 477.328125 C 323.195312 466.195312 321.421875 455.105469 319.824219 444.152344 C 308.785156 367.242188 305.859375 296.226562 305.066406 263.714844 C 304.796875 253.070312 312.558594 243.933594 323.105469 242.472656 C 356.578125 237.859375 388.71875 234.578125 419.089844 232.355469 C 549.164062 222.734375 647.492188 232.136719 685.527344 236.925781 C 695.597656 238.167969 703.308594 246.507812 703.753906 256.664062 C 705.699219 300.222656 701.535156 345.285156 695.636719 384.179688 " fill-opacity="1" fill-rule="evenodd"/><path fill="#ffebfd" d="M 363.335938 192.972656 L 407.945312 173.847656 C 407.945312 173.847656 465.433594 168.695312 508.671875 168.515625 L 495.386719 183.769531 C 495.386719 183.769531 391.734375 189.726562 363.335938 192.972656 " fill-opacity="1" fill-rule="evenodd"/><path fill="#7d608d" d="M 375.132812 303.902344 C 375.132812 303.902344 384.554688 288.929688 420.574219 279.503906 L 422.511719 295.585938 C 422.511719 295.585938 399.242188 295.863281 377.902344 311.664062 L 375.132812 303.902344 " fill-opacity="1" fill-rule="evenodd"/><path fill="#7d608d" d="M 579.621094 279.503906 L 576.449219 292.648438 C 576.449219 292.648438 600.953125 298.078125 615.636719 311.664062 L 620.074219 303.902344 C 620.074219 303.902344 604.003906 283.390625 579.621094 279.503906 " fill-opacity="1" fill-rule="evenodd"/><path fill="#20123c" d="M 469.894531 449.902344 C 469.894531 449.902344 495.015625 425.507812 507.945312 426.617188 C 520.878906 427.722656 522.722656 443.246094 522.722656 443.246094 C 522.722656 443.246094 492.800781 440.660156 469.894531 449.902344 " fill-opacity="1" fill-rule="evenodd"/><path fill="#7f6f87" d="M 469.894531 449.902344 C 469.894531 449.902344 483.75 439.144531 499.820312 438.242188 C 515.890625 437.332031 522.722656 443.246094 522.722656 443.246094 C 522.722656 443.246094 495.753906 440.660156 469.894531 449.902344 " fill-opacity="1" fill-rule="evenodd"/><path fill="#805d8d" d="M 602.890625 419.90625 C 595.570312 410.933594 588.097656 403.0625 581.082031 396.304688 C 573.25 402.324219 565.144531 408.648438 557.453125 414.800781 L 545.261719 400.648438 C 546.226562 398.078125 557.359375 383.605469 564.574219 379.78125 C 553.796875 370.816406 544.335938 365.429688 544.335938 365.429688 C 553.574219 347.882812 567.984375 341.601562 567.984375 341.601562 C 575.210938 346.339844 581.78125 352.164062 587.6875 358.3125 C 596.160156 351.636719 605.460938 345.65625 615.082031 341.769531 L 628.664062 358.957031 C 628.664062 358.957031 617.636719 368.933594 604.480469 378.808594 C 615.699219 394.199219 622.84375 406.46875 622.84375 406.46875 L 602.890625 419.90625 " fill-opacity="1" fill-rule="nonzero"/><path fill="#805d8d" d="M 395.507812 420.65625 L 374.949219 406.46875 C 374.949219 406.46875 384.078125 394.199219 395.292969 378.808594 C 382.136719 368.933594 371.113281 358.957031 371.113281 358.957031 L 382.707031 341.769531 C 392.332031 345.65625 404.5625 354 413.039062 360.675781 C 418.945312 354.527344 429.582031 347.839844 436.003906 341.601562 C 436.003906 341.601562 453.6875 352.460938 456.734375 365.429688 C 456.734375 365.429688 445.976562 370.816406 435.203125 379.78125 C 441.003906 384.179688 453.550781 398.078125 454.515625 400.648438 L 442.324219 414.800781 C 434.636719 408.648438 425.542969 401.496094 417.710938 395.476562 C 410.695312 402.230469 402.828125 411.679688 395.507812 420.65625 " fill-opacity="1" fill-rule="nonzero"/><path fill="#f7266f" d="M 625.0625 359.429688 L 615.082031 341.769531 C 605.460938 345.65625 596.160156 351.636719 587.6875 358.3125 C 581.78125 352.164062 575.210938 346.339844 567.984375 341.601562 C 567.984375 341.601562 550.523438 351.859375 547.480469 364.828125 C 547.480469 364.828125 554.90625 369.628906 565.683594 378.597656 C 554.492188 390.414062 547.480469 400.152344 547.480469 400.152344 L 557.453125 410.90625 C 565.144531 404.753906 573.25 398.429688 581.082031 392.410156 C 588.097656 399.164062 595.570312 407.035156 602.890625 416.011719 L 620.074219 404.808594 C 620.074219 404.808594 613.773438 391.507812 602.554688 376.113281 C 615.714844 366.246094 625.0625 359.429688 625.0625 359.429688 " fill-opacity="1" fill-rule="evenodd"/><path fill="#f7266f" d="M 455.117188 363.480469 C 448.558594 348.441406 436.003906 341.601562 436.003906 341.601562 C 427.851562 346.949219 420.089844 353.648438 413.039062 360.675781 C 403.800781 353.0625 393.457031 346.109375 382.707031 341.769531 L 372.730469 359.429688 C 372.730469 359.429688 383.183594 367.054688 397.503906 377.820312 C 385.402344 392.46875 377.71875 404.808594 377.71875 404.808594 L 394.898438 416.011719 C 402.039062 407.257812 409.675781 399.457031 417.042969 392.671875 C 424.769531 398.613281 432.757812 404.839844 440.339844 410.90625 L 450.316406 400.152344 C 450.316406 400.152344 443.558594 390.785156 432.75 379.285156 C 445.613281 369.140625 455.117188 363.480469 455.117188 363.480469 " fill-opacity="1" fill-rule="evenodd"/><path fill="#f5bca3" d="M 547.273438 541.570312 C 509.800781 541.570312 473.691406 540.507812 441.253906 539.023438 L 441.03125 539.023438 C 386.414062 536.539062 342.257812 532.90625 319.738281 531.175781 C 311.359375 530.554688 304.175781 525.496094 300.589844 518.132812 L 299.167969 514.40625 C 299.167969 514.40625 365.710938 537.117188 509.792969 537.117188 C 653.875 537.117188 704.238281 519.554688 704.238281 519.554688 C 700.957031 528.425781 693.6875 535.125 684.335938 536.007812 C 665.433594 537.742188 646.148438 539.011719 626.789062 539.890625 C 623.585938 540.035156 620.382812 540.171875 617.175781 540.300781 C 596.625 541.101562 576.046875 541.488281 555.8125 541.550781 C 552.960938 541.566406 550.117188 541.570312 547.273438 541.570312 " fill-opacity="1" fill-rule="nonzero"/><path fill="#fffbd7" d="M 671.234375 509.363281 C 673.84375 510.671875 672.125 530.648438 669.320312 533.230469 C 666.523438 535.816406 616.050781 538.261719 612.183594 535.210938 C 609.453125 533.058594 609.988281 515.953125 613.464844 511.804688 C 616.460938 508.234375 666.3125 506.890625 671.234375 509.363281 " fill-opacity="1" fill-rule="evenodd"/><path fill="#e3847e" d="M 671.234375 507.988281 C 673.84375 509.300781 672.125 529.277344 669.320312 531.859375 C 666.523438 534.445312 616.847656 536.335938 612.976562 533.285156 C 610.25 531.132812 611.191406 513.585938 613.464844 510.433594 C 616.179688 506.671875 666.3125 505.515625 671.234375 507.988281 " fill-opacity="1" fill-rule="evenodd"/><path fill="#ffaa94" d="M 669.410156 509.390625 C 672.285156 511.453125 671.152344 526.113281 670.082031 530.285156 C 669.90625 530.972656 667.792969 531.734375 667.492188 531.84375 C 663.523438 533.246094 617.949219 535.09375 614.332031 532.226562 C 610.710938 529.367188 614.066406 514.59375 614.953125 512.246094 C 615.832031 509.898438 664.320312 505.742188 669.410156 509.390625 " fill-opacity="1" fill-rule="evenodd"/><path fill="#fecaad" d="M 616.925781 531.066406 C 620.546875 533.921875 666.484375 532.960938 669.824219 530.523438 C 671.414062 529.320312 672.1875 524.847656 672.1875 520.339844 L 672.1875 520.261719 C 672.1875 515.457031 673.753906 510.367188 672.246094 509.277344 C 667.15625 505.632812 618.140625 509.355469 617.289062 511.722656 C 616.390625 514.054688 613.300781 528.210938 616.925781 531.066406 " fill-opacity="1" fill-rule="evenodd"/><path fill="#fffbd7" d="M 617.289062 511.722656 C 632.4375 508.640625 664.957031 508.75 669.726562 510.480469 C 674.164062 512.097656 672.148438 519.4375 672.1875 520.261719 C 672.1875 515.457031 673.753906 510.367188 672.246094 509.277344 C 667.15625 505.632812 618.140625 509.355469 617.289062 511.722656 " fill-opacity="1" fill-rule="evenodd"/><path fill="#ffffff" d="M 672.246094 509.277344 C 672.246094 509.277344 670.472656 513.144531 663.511719 512.050781 C 656.558594 510.957031 656.3125 507.753906 656.3125 507.753906 C 656.3125 507.753906 668.253906 507.207031 672.246094 509.277344 " fill-opacity="1" fill-rule="evenodd"/><path fill="#ffffff" d="M 588.71875 190.285156 C 588.71875 190.285156 595.132812 211.300781 625.0625 215.09375 C 654.984375 218.890625 677.40625 196.601562 677.40625 196.601562 C 677.40625 196.601562 619.234375 191.09375 588.71875 190.285156 " fill-opacity="1" fill-rule="evenodd"/><path fill="#5b386b" d="M 695.636719 384.179688 L 419.089844 232.355469 C 459.957031 229.335938 497.710938 228.191406 531.429688 228.191406 C 605.019531 228.191406 659.445312 233.640625 685.527344 236.925781 C 695.597656 238.167969 703.308594 246.507812 703.753906 256.664062 C 704.082031 264.066406 704.238281 271.507812 704.238281 278.957031 C 704.234375 307.898438 701.894531 336.921875 698.476562 363.832031 C 697.59375 370.765625 696.644531 377.5625 695.636719 384.179688 M 579.621094 279.503906 L 576.449219 292.648438 C 576.449219 292.648438 600.953125 298.078125 615.636719 311.664062 L 620.074219 303.902344 C 620.074219 303.902344 604.003906 283.390625 579.621094 279.503906 " fill-opacity="1" fill-rule="nonzero"/><path fill="#704f7f" d="M 615.636719 311.664062 C 600.953125 298.078125 576.449219 292.648438 576.449219 292.648438 L 579.621094 279.503906 C 604.003906 283.390625 620.074219 303.902344 620.074219 303.902344 L 615.636719 311.664062 " fill-opacity="1" fill-rule="nonzero"/><path fill="#ffffff" d="M 278.738281 358.933594 C 278.738281 358.933594 272.429688 386.308594 285.910156 406.46875 C 285.910156 406.46875 285.542969 371.460938 278.738281 358.933594 " fill-opacity="1" fill-rule="evenodd"/><path fill="#4d2d5f" d="M 507.75 501.472656 C 434.179688 501.472656 371.90625 497.007812 343.855469 494.625 C 334.414062 493.824219 326.699219 486.683594 325.101562 477.328125 C 323.195312 466.195312 321.421875 455.105469 319.824219 444.152344 L 603.511719 498.660156 L 603.425781 498.707031 C 570.6875 500.707031 538.246094 501.472656 507.75 501.472656 " fill-opacity="1" fill-rule="nonzero"/><path fill="#f7bdb5" d="M 251.441406 558.417969 C 249.675781 550.175781 248.980469 541.429688 248.988281 532.710938 C 250.785156 532.414062 253.691406 532.007812 257.261719 531.742188 C 254.535156 547.589844 251.441406 558.417969 251.441406 558.417969 M 249.046875 528.464844 C 249.566406 508.378906 253.542969 488.960938 256.519531 476.992188 C 257.785156 476.640625 259.277344 476.28125 260.976562 475.964844 C 262.167969 493.988281 260.335938 512.550781 257.96875 527.488281 C 255.160156 527.671875 252.183594 527.988281 249.046875 528.464844 M 257.398438 473.546875 C 258.820312 468.140625 259.847656 464.953125 259.847656 464.953125 C 260.207031 467.457031 260.492188 469.984375 260.714844 472.53125 C 259.597656 472.820312 258.496094 473.164062 257.398438 473.546875 " fill-opacity="1" fill-rule="nonzero"/><path fill="#ffeedf" d="M 248.988281 532.710938 C 248.992188 531.292969 249.007812 529.878906 249.046875 528.464844 C 252.183594 527.988281 255.160156 527.671875 257.96875 527.488281 C 257.738281 528.941406 257.503906 530.363281 257.261719 531.742188 C 253.691406 532.007812 250.785156 532.414062 248.988281 532.710938 " fill-opacity="1" fill-rule="nonzero"/><path fill="#ffeedf" d="M 256.519531 476.992188 C 256.824219 475.761719 257.117188 474.613281 257.398438 473.546875 C 258.496094 473.164062 259.597656 472.820312 260.714844 472.53125 C 260.816406 473.671875 260.90625 474.816406 260.976562 475.964844 C 259.277344 476.28125 257.785156 476.640625 256.519531 476.992188 " fill-opacity="1" fill-rule="nonzero"/><path fill="#f7bdb5" d="M 722.175781 582.550781 C 718.003906 569.839844 716.996094 552.539062 717.023438 538.546875 C 718.667969 537.734375 720.378906 537.042969 722.136719 536.464844 C 725.421875 563.039062 722.175781 582.550781 722.175781 582.550781 M 717.070312 533.695312 C 717.273438 522.492188 718.046875 514.40625 718.046875 514.40625 C 719.578125 520.527344 720.71875 526.480469 721.554688 532.160156 C 719.75 532.6875 718.253906 533.222656 717.070312 533.695312 " fill-opacity="1" fill-rule="nonzero"/><path fill="#ffeedf" d="M 717.023438 538.546875 C 717.023438 536.882812 717.042969 535.257812 717.070312 533.695312 C 718.253906 533.222656 719.75 532.6875 721.554688 532.160156 C 721.765625 533.613281 721.960938 535.046875 722.136719 536.464844 C 720.378906 537.042969 718.667969 537.734375 717.023438 538.546875 " fill-opacity="1" fill-rule="nonzero"/><g fill="#fe5a5f" fill-opacity="1"><g transform="translate(147.830804, 134.699522)"><g><path d="M 3.09375 -73.8125 L 35.78125 -73.8125 L 42.515625 -51.796875 L 42.515625 -73.8125 L 75.40625 -73.8125 L 75.40625 0 L 42.515625 0 L 36.84375 -21.578125 L 36.84375 0 L 3.09375 0 Z M 3.09375 -73.8125 "/></g></g></g><g fill="#fe5a5f" fill-opacity="1"><g transform="translate(229.641786, 134.699522)"><g><path d="M 38.34375 -74.875 L 47.21875 -74.875 C 60.03125 -74.875 69.351562 -71.847656 75.1875 -65.796875 C 81.03125 -59.742188 83.953125 -50.238281 83.953125 -37.28125 C 83.953125 -24.320312 81.015625 -14.691406 75.140625 -8.390625 C 69.265625 -2.085938 59.957031 1.0625 47.21875 1.0625 L 38.34375 1.0625 C 25.59375 1.0625 16.265625 -2.085938 10.359375 -8.390625 C 4.453125 -14.691406 1.5 -24.320312 1.5 -37.28125 C 1.5 -50.238281 4.4375 -59.742188 10.3125 -65.796875 C 16.1875 -71.847656 25.53125 -74.875 38.34375 -74.875 Z M 39.734375 -39.734375 L 39.734375 -27.34375 C 39.734375 -26.414062 40 -25.664062 40.53125 -25.09375 C 41.070312 -24.53125 41.785156 -24.25 42.671875 -24.25 C 43.554688 -24.25 44.300781 -24.53125 44.90625 -25.09375 C 45.519531 -25.664062 45.828125 -26.414062 45.828125 -27.34375 L 45.828125 -39.734375 C 45.828125 -40.585938 45.519531 -41.296875 44.90625 -41.859375 C 44.300781 -42.429688 43.554688 -42.71875 42.671875 -42.71875 C 41.785156 -42.71875 41.070312 -42.429688 40.53125 -41.859375 C 40 -41.296875 39.734375 -40.585938 39.734375 -39.734375 Z M 39.734375 -39.734375 "/></g></g></g><g fill="#fe5a5f" fill-opacity="1"><g transform="translate(318.501749, 134.699522)"><g><path d="M 3.09375 -42.71875 L 3.09375 -73.8125 L 68.890625 -73.8125 L 68.890625 -42.71875 L 55.859375 -42.71875 L 55.859375 0 L 15.921875 0 L 15.921875 -42.71875 Z M 3.09375 -42.71875 "/></g></g></g><g fill="#fe5a5f" fill-opacity="1"><g transform="translate(393.797765, 134.699522)"><g/></g></g><g fill="#fe5a5f" fill-opacity="1"><g transform="translate(427.654325, 134.699522)"><g><path d="M 1.5 -73.8125 L 61.421875 -73.8125 L 61.421875 -42.71875 L 38.34375 -42.71875 L 38.34375 -38.453125 L 61.421875 -38.453125 L 61.421875 -23.5 L 38.34375 -23.5 L 38.34375 0 L 1.5 0 Z M 1.5 -73.8125 "/></g></g></g><g fill="#fe5a5f" fill-opacity="1"><g transform="translate(493.872113, 134.699522)"><g><path d="M 38.34375 -74.875 L 47.21875 -74.875 C 60.03125 -74.875 69.351562 -71.847656 75.1875 -65.796875 C 81.03125 -59.742188 83.953125 -50.238281 83.953125 -37.28125 C 83.953125 -24.320312 81.015625 -14.691406 75.140625 -8.390625 C 69.265625 -2.085938 59.957031 1.0625 47.21875 1.0625 L 38.34375 1.0625 C 25.59375 1.0625 16.265625 -2.085938 10.359375 -8.390625 C 4.453125 -14.691406 1.5 -24.320312 1.5 -37.28125 C 1.5 -50.238281 4.4375 -59.742188 10.3125 -65.796875 C 16.1875 -71.847656 25.53125 -74.875 38.34375 -74.875 Z M 39.734375 -39.734375 L 39.734375 -27.34375 C 39.734375 -26.414062 40 -25.664062 40.53125 -25.09375 C 41.070312 -24.53125 41.785156 -24.25 42.671875 -24.25 C 43.554688 -24.25 44.300781 -24.53125 44.90625 -25.09375 C 45.519531 -25.664062 45.828125 -26.414062 45.828125 -27.34375 L 45.828125 -39.734375 C 45.828125 -40.585938 45.519531 -41.296875 44.90625 -41.859375 C 44.300781 -42.429688 43.554688 -42.71875 42.671875 -42.71875 C 41.785156 -42.71875 41.070312 -42.429688 40.53125 -41.859375 C 40 -41.296875 39.734375 -40.585938 39.734375 -39.734375 Z M 39.734375 -39.734375 "/></g></g></g><g fill="#fe5a5f" fill-opacity="1"><g transform="translate(582.732072, 134.699522)"><g><path d="M 44.328125 -73.8125 L 79.46875 -73.8125 L 79.46875 -32.796875 C 79.46875 -21.253906 76.53125 -12.722656 70.65625 -7.203125 C 64.78125 -1.691406 55.4375 1.0625 42.625 1.0625 L 39.84375 1.0625 C 27.09375 1.0625 17.78125 -1.710938 11.90625 -7.265625 C 6.03125 -12.816406 3.09375 -21.328125 3.09375 -32.796875 L 3.09375 -73.8125 L 38.125 -73.8125 L 38.125 -28.84375 C 38.125 -27.914062 38.410156 -27.179688 38.984375 -26.640625 C 39.554688 -26.109375 40.285156 -25.84375 41.171875 -25.84375 C 42.066406 -25.84375 42.816406 -26.128906 43.421875 -26.703125 C 44.023438 -27.273438 44.328125 -27.988281 44.328125 -28.84375 Z M 44.328125 -73.8125 "/></g></g></g><g fill="#fe5a5f" fill-opacity="1"><g transform="translate(668.494727, 134.699522)"><g><path d="M 3.09375 -73.8125 L 35.78125 -73.8125 L 42.515625 -51.796875 L 42.515625 -73.8125 L 75.40625 -73.8125 L 75.40625 0 L 42.515625 0 L 36.84375 -21.578125 L 36.84375 0 L 3.09375 0 Z M 3.09375 -73.8125 "/></g></g></g><g fill="#fe5a5f" fill-opacity="1"><g transform="translate(750.305705, 134.699522)"><g><path d="M 3.09375 -73.8125 L 41.65625 -73.8125 C 53.550781 -73.8125 62.648438 -70.960938 68.953125 -65.265625 C 75.253906 -59.566406 78.40625 -50.273438 78.40625 -37.390625 C 78.40625 -12.460938 65.65625 0 40.15625 0 L 3.09375 0 Z M 38.984375 -42.71875 L 38.984375 -24.25 L 41.984375 -24.25 C 42.835938 -24.25 43.566406 -24.53125 44.171875 -25.09375 C 44.773438 -25.664062 45.078125 -26.414062 45.078125 -27.34375 L 45.078125 -39.734375 C 45.078125 -40.585938 44.773438 -41.296875 44.171875 -41.859375 C 43.566406 -42.429688 42.835938 -42.71875 41.984375 -42.71875 Z M 38.984375 -42.71875 "/></g></g></g></svg>