<svg xmlns="http://www.w3.org/2000/svg" xmlns:xlink="http://www.w3.org/1999/xlink" width="1341" zoomAndPan="magnify" viewBox="0 0 1006.5 821.999993" height="1096" preserveAspectRatio="xMidYMid meet" version="1.0"><defs><g/><clipPath id="fcfce397eb"><path d="M 736 662.113281 L 766.613281 662.113281 L 766.613281 723.242188 L 736 723.242188 Z M 736 662.113281 " clip-rule="nonzero"/></clipPath></defs><g fill="#fe5a5f" fill-opacity="1"><g transform="translate(176.92303, 200.293467)"><g><path d="M 5.046875 -120.171875 L 102.4375 -120.171875 L 102.4375 -69.5625 L 64.859375 -69.5625 L 64.859375 -62.609375 L 102.4375 -62.609375 L 102.4375 -51.65625 L 64.859375 -51.65625 L 64.859375 -44.6875 L 104 -44.6875 L 104 0 L 5.046875 0 Z M 5.046875 -120.171875 "/></g></g></g><g fill="#fe5a5f" fill-opacity="1"><g transform="translate(285.782895, 200.293467)"><g><path d="M 64.859375 -35.125 L 64.859375 0 L 5.046875 0 L 5.046875 -120.171875 L 68.171875 -120.171875 C 88.921875 -120.171875 104.164062 -116.78125 113.90625 -110 C 123.644531 -103.21875 128.515625 -91.476562 128.515625 -74.78125 C 128.515625 -62.144531 124.398438 -52.8125 116.171875 -46.78125 C 123.128906 -34.375 128.40625 -18.78125 132 0 L 74.78125 0 C 73.851562 -11.707031 72.226562 -22.023438 69.90625 -30.953125 L 68.6875 -35.125 Z M 64.859375 -49.21875 L 69.90625 -49.21875 C 71.300781 -49.21875 72.460938 -49.679688 73.390625 -50.609375 C 74.316406 -51.535156 74.78125 -52.753906 74.78125 -54.265625 L 74.78125 -64.6875 C 74.78125 -66.195312 74.316406 -67.382812 73.390625 -68.25 C 72.460938 -69.125 71.300781 -69.5625 69.90625 -69.5625 L 64.859375 -69.5625 Z M 64.859375 -49.21875 "/></g></g></g><g fill="#fe5a5f" fill-opacity="1"><g transform="translate(420.379594, 200.293467)"><g><path d="M 64.859375 -35.125 L 64.859375 0 L 5.046875 0 L 5.046875 -120.171875 L 68.171875 -120.171875 C 88.921875 -120.171875 104.164062 -116.78125 113.90625 -110 C 123.644531 -103.21875 128.515625 -91.476562 128.515625 -74.78125 C 128.515625 -62.144531 124.398438 -52.8125 116.171875 -46.78125 C 123.128906 -34.375 128.40625 -18.78125 132 0 L 74.78125 0 C 73.851562 -11.707031 72.226562 -22.023438 69.90625 -30.953125 L 68.6875 -35.125 Z M 64.859375 -49.21875 L 69.90625 -49.21875 C 71.300781 -49.21875 72.460938 -49.679688 73.390625 -50.609375 C 74.316406 -51.535156 74.78125 -52.753906 74.78125 -54.265625 L 74.78125 -64.6875 C 74.78125 -66.195312 74.316406 -67.382812 73.390625 -68.25 C 72.460938 -69.125 71.300781 -69.5625 69.90625 -69.5625 L 64.859375 -69.5625 Z M 64.859375 -49.21875 "/></g></g></g><g fill="#fe5a5f" fill-opacity="1"><g transform="translate(554.976279, 200.293467)"><g><path d="M 62.4375 -121.90625 L 76.859375 -121.90625 C 97.734375 -121.90625 112.921875 -116.976562 122.421875 -107.125 C 131.929688 -97.269531 136.6875 -81.789062 136.6875 -60.6875 C 136.6875 -39.59375 131.90625 -23.914062 122.34375 -13.65625 C 112.78125 -3.394531 97.617188 1.734375 76.859375 1.734375 L 62.4375 1.734375 C 41.675781 1.734375 26.484375 -3.394531 16.859375 -13.65625 C 7.242188 -23.914062 2.4375 -39.59375 2.4375 -60.6875 C 2.4375 -81.789062 7.21875 -97.269531 16.78125 -107.125 C 26.34375 -116.976562 41.5625 -121.90625 62.4375 -121.90625 Z M 64.6875 -64.6875 L 64.6875 -44.515625 C 64.6875 -43.015625 65.117188 -41.800781 65.984375 -40.875 C 66.859375 -39.945312 68.019531 -39.484375 69.46875 -39.484375 C 70.925781 -39.484375 72.144531 -39.945312 73.125 -40.875 C 74.113281 -41.800781 74.609375 -43.015625 74.609375 -44.515625 L 74.609375 -64.6875 C 74.609375 -66.082031 74.113281 -67.242188 73.125 -68.171875 C 72.144531 -69.097656 70.925781 -69.5625 69.46875 -69.5625 C 68.019531 -69.5625 66.859375 -69.097656 65.984375 -68.171875 C 65.117188 -67.242188 64.6875 -66.082031 64.6875 -64.6875 Z M 64.6875 -64.6875 "/></g></g></g><g fill="#fe5a5f" fill-opacity="1"><g transform="translate(694.268199, 200.293467)"><g><path d="M 64.859375 -35.125 L 64.859375 0 L 5.046875 0 L 5.046875 -120.171875 L 68.171875 -120.171875 C 88.921875 -120.171875 104.164062 -116.78125 113.90625 -110 C 123.644531 -103.21875 128.515625 -91.476562 128.515625 -74.78125 C 128.515625 -62.144531 124.398438 -52.8125 116.171875 -46.78125 C 123.128906 -34.375 128.40625 -18.78125 132 0 L 74.78125 0 C 73.851562 -11.707031 72.226562 -22.023438 69.90625 -30.953125 L 68.6875 -35.125 Z M 64.859375 -49.21875 L 69.90625 -49.21875 C 71.300781 -49.21875 72.460938 -49.679688 73.390625 -50.609375 C 74.316406 -51.535156 74.78125 -52.753906 74.78125 -54.265625 L 74.78125 -64.6875 C 74.78125 -66.195312 74.316406 -67.382812 73.390625 -68.25 C 72.460938 -69.125 71.300781 -69.5625 69.90625 -69.5625 L 64.859375 -69.5625 Z M 64.859375 -49.21875 "/></g></g></g><g fill="#fe5a5f" fill-opacity="1"><g transform="translate(176.92303, 340.776023)"><g><path d="M 5.046875 -120.171875 L 102.4375 -120.171875 L 102.4375 -69.5625 L 64.859375 -69.5625 L 64.859375 -62.609375 L 102.4375 -62.609375 L 102.4375 -51.65625 L 64.859375 -51.65625 L 64.859375 -44.6875 L 104 -44.6875 L 104 0 L 5.046875 0 Z M 5.046875 -120.171875 "/></g></g></g><g fill="#fe5a5f" fill-opacity="1"><g transform="translate(285.782895, 340.776023)"><g><path d="M 64.859375 -35.125 L 64.859375 0 L 5.046875 0 L 5.046875 -120.171875 L 68.171875 -120.171875 C 88.921875 -120.171875 104.164062 -116.78125 113.90625 -110 C 123.644531 -103.21875 128.515625 -91.476562 128.515625 -74.78125 C 128.515625 -62.144531 124.398438 -52.8125 116.171875 -46.78125 C 123.128906 -34.375 128.40625 -18.78125 132 0 L 74.78125 0 C 73.851562 -11.707031 72.226562 -22.023438 69.90625 -30.953125 L 68.6875 -35.125 Z M 64.859375 -49.21875 L 69.90625 -49.21875 C 71.300781 -49.21875 72.460938 -49.679688 73.390625 -50.609375 C 74.316406 -51.535156 74.78125 -52.753906 74.78125 -54.265625 L 74.78125 -64.6875 C 74.78125 -66.195312 74.316406 -67.382812 73.390625 -68.25 C 72.460938 -69.125 71.300781 -69.5625 69.90625 -69.5625 L 64.859375 -69.5625 Z M 64.859375 -49.21875 "/></g></g></g><g fill="#fe5a5f" fill-opacity="1"><g transform="translate(420.379594, 340.776023)"><g><path d="M 64.859375 -35.125 L 64.859375 0 L 5.046875 0 L 5.046875 -120.171875 L 68.171875 -120.171875 C 88.921875 -120.171875 104.164062 -116.78125 113.90625 -110 C 123.644531 -103.21875 128.515625 -91.476562 128.515625 -74.78125 C 128.515625 -62.144531 124.398438 -52.8125 116.171875 -46.78125 C 123.128906 -34.375 128.40625 -18.78125 132 0 L 74.78125 0 C 73.851562 -11.707031 72.226562 -22.023438 69.90625 -30.953125 L 68.6875 -35.125 Z M 64.859375 -49.21875 L 69.90625 -49.21875 C 71.300781 -49.21875 72.460938 -49.679688 73.390625 -50.609375 C 74.316406 -51.535156 74.78125 -52.753906 74.78125 -54.265625 L 74.78125 -64.6875 C 74.78125 -66.195312 74.316406 -67.382812 73.390625 -68.25 C 72.460938 -69.125 71.300781 -69.5625 69.90625 -69.5625 L 64.859375 -69.5625 Z M 64.859375 -49.21875 "/></g></g></g><g fill="#fe5a5f" fill-opacity="1"><g transform="translate(554.976279, 340.776023)"><g><path d="M 62.4375 -121.90625 L 76.859375 -121.90625 C 97.734375 -121.90625 112.921875 -116.976562 122.421875 -107.125 C 131.929688 -97.269531 136.6875 -81.789062 136.6875 -60.6875 C 136.6875 -39.59375 131.90625 -23.914062 122.34375 -13.65625 C 112.78125 -3.394531 97.617188 1.734375 76.859375 1.734375 L 62.4375 1.734375 C 41.675781 1.734375 26.484375 -3.394531 16.859375 -13.65625 C 7.242188 -23.914062 2.4375 -39.59375 2.4375 -60.6875 C 2.4375 -81.789062 7.21875 -97.269531 16.78125 -107.125 C 26.34375 -116.976562 41.5625 -121.90625 62.4375 -121.90625 Z M 64.6875 -64.6875 L 64.6875 -44.515625 C 64.6875 -43.015625 65.117188 -41.800781 65.984375 -40.875 C 66.859375 -39.945312 68.019531 -39.484375 69.46875 -39.484375 C 70.925781 -39.484375 72.144531 -39.945312 73.125 -40.875 C 74.113281 -41.800781 74.609375 -43.015625 74.609375 -44.515625 L 74.609375 -64.6875 C 74.609375 -66.082031 74.113281 -67.242188 73.125 -68.171875 C 72.144531 -69.097656 70.925781 -69.5625 69.46875 -69.5625 C 68.019531 -69.5625 66.859375 -69.097656 65.984375 -68.171875 C 65.117188 -67.242188 64.6875 -66.082031 64.6875 -64.6875 Z M 64.6875 -64.6875 "/></g></g></g><g fill="#fe5a5f" fill-opacity="1"><g transform="translate(694.268199, 340.776023)"><g><path d="M 64.859375 -35.125 L 64.859375 0 L 5.046875 0 L 5.046875 -120.171875 L 68.171875 -120.171875 C 88.921875 -120.171875 104.164062 -116.78125 113.90625 -110 C 123.644531 -103.21875 128.515625 -91.476562 128.515625 -74.78125 C 128.515625 -62.144531 124.398438 -52.8125 116.171875 -46.78125 C 123.128906 -34.375 128.40625 -18.78125 132 0 L 74.78125 0 C 73.851562 -11.707031 72.226562 -22.023438 69.90625 -30.953125 L 68.6875 -35.125 Z M 64.859375 -49.21875 L 69.90625 -49.21875 C 71.300781 -49.21875 72.460938 -49.679688 73.390625 -50.609375 C 74.316406 -51.535156 74.78125 -52.753906 74.78125 -54.265625 L 74.78125 -64.6875 C 74.78125 -66.195312 74.316406 -67.382812 73.390625 -68.25 C 72.460938 -69.125 71.300781 -69.5625 69.90625 -69.5625 L 64.859375 -69.5625 Z M 64.859375 -49.21875 "/></g></g></g><g fill="#fe5a5f" fill-opacity="1"><g transform="translate(176.92303, 481.258579)"><g><path d="M 5.046875 -120.171875 L 102.4375 -120.171875 L 102.4375 -69.5625 L 64.859375 -69.5625 L 64.859375 -62.609375 L 102.4375 -62.609375 L 102.4375 -51.65625 L 64.859375 -51.65625 L 64.859375 -44.6875 L 104 -44.6875 L 104 0 L 5.046875 0 Z M 5.046875 -120.171875 "/></g></g></g><g fill="#fe5a5f" fill-opacity="1"><g transform="translate(285.782895, 481.258579)"><g><path d="M 64.859375 -35.125 L 64.859375 0 L 5.046875 0 L 5.046875 -120.171875 L 68.171875 -120.171875 C 88.921875 -120.171875 104.164062 -116.78125 113.90625 -110 C 123.644531 -103.21875 128.515625 -91.476562 128.515625 -74.78125 C 128.515625 -62.144531 124.398438 -52.8125 116.171875 -46.78125 C 123.128906 -34.375 128.40625 -18.78125 132 0 L 74.78125 0 C 73.851562 -11.707031 72.226562 -22.023438 69.90625 -30.953125 L 68.6875 -35.125 Z M 64.859375 -49.21875 L 69.90625 -49.21875 C 71.300781 -49.21875 72.460938 -49.679688 73.390625 -50.609375 C 74.316406 -51.535156 74.78125 -52.753906 74.78125 -54.265625 L 74.78125 -64.6875 C 74.78125 -66.195312 74.316406 -67.382812 73.390625 -68.25 C 72.460938 -69.125 71.300781 -69.5625 69.90625 -69.5625 L 64.859375 -69.5625 Z M 64.859375 -49.21875 "/></g></g></g><g fill="#fe5a5f" fill-opacity="1"><g transform="translate(420.379594, 481.258579)"><g><path d="M 64.859375 -35.125 L 64.859375 0 L 5.046875 0 L 5.046875 -120.171875 L 68.171875 -120.171875 C 88.921875 -120.171875 104.164062 -116.78125 113.90625 -110 C 123.644531 -103.21875 128.515625 -91.476562 128.515625 -74.78125 C 128.515625 -62.144531 124.398438 -52.8125 116.171875 -46.78125 C 123.128906 -34.375 128.40625 -18.78125 132 0 L 74.78125 0 C 73.851562 -11.707031 72.226562 -22.023438 69.90625 -30.953125 L 68.6875 -35.125 Z M 64.859375 -49.21875 L 69.90625 -49.21875 C 71.300781 -49.21875 72.460938 -49.679688 73.390625 -50.609375 C 74.316406 -51.535156 74.78125 -52.753906 74.78125 -54.265625 L 74.78125 -64.6875 C 74.78125 -66.195312 74.316406 -67.382812 73.390625 -68.25 C 72.460938 -69.125 71.300781 -69.5625 69.90625 -69.5625 L 64.859375 -69.5625 Z M 64.859375 -49.21875 "/></g></g></g><g fill="#fe5a5f" fill-opacity="1"><g transform="translate(554.976279, 481.258579)"><g><path d="M 62.4375 -121.90625 L 76.859375 -121.90625 C 97.734375 -121.90625 112.921875 -116.976562 122.421875 -107.125 C 131.929688 -97.269531 136.6875 -81.789062 136.6875 -60.6875 C 136.6875 -39.59375 131.90625 -23.914062 122.34375 -13.65625 C 112.78125 -3.394531 97.617188 1.734375 76.859375 1.734375 L 62.4375 1.734375 C 41.675781 1.734375 26.484375 -3.394531 16.859375 -13.65625 C 7.242188 -23.914062 2.4375 -39.59375 2.4375 -60.6875 C 2.4375 -81.789062 7.21875 -97.269531 16.78125 -107.125 C 26.34375 -116.976562 41.5625 -121.90625 62.4375 -121.90625 Z M 64.6875 -64.6875 L 64.6875 -44.515625 C 64.6875 -43.015625 65.117188 -41.800781 65.984375 -40.875 C 66.859375 -39.945312 68.019531 -39.484375 69.46875 -39.484375 C 70.925781 -39.484375 72.144531 -39.945312 73.125 -40.875 C 74.113281 -41.800781 74.609375 -43.015625 74.609375 -44.515625 L 74.609375 -64.6875 C 74.609375 -66.082031 74.113281 -67.242188 73.125 -68.171875 C 72.144531 -69.097656 70.925781 -69.5625 69.46875 -69.5625 C 68.019531 -69.5625 66.859375 -69.097656 65.984375 -68.171875 C 65.117188 -67.242188 64.6875 -66.082031 64.6875 -64.6875 Z M 64.6875 -64.6875 "/></g></g></g><g fill="#fe5a5f" fill-opacity="1"><g transform="translate(694.268199, 481.258579)"><g><path d="M 64.859375 -35.125 L 64.859375 0 L 5.046875 0 L 5.046875 -120.171875 L 68.171875 -120.171875 C 88.921875 -120.171875 104.164062 -116.78125 113.90625 -110 C 123.644531 -103.21875 128.515625 -91.476562 128.515625 -74.78125 C 128.515625 -62.144531 124.398438 -52.8125 116.171875 -46.78125 C 123.128906 -34.375 128.40625 -18.78125 132 0 L 74.78125 0 C 73.851562 -11.707031 72.226562 -22.023438 69.90625 -30.953125 L 68.6875 -35.125 Z M 64.859375 -49.21875 L 69.90625 -49.21875 C 71.300781 -49.21875 72.460938 -49.679688 73.390625 -50.609375 C 74.316406 -51.535156 74.78125 -52.753906 74.78125 -54.265625 L 74.78125 -64.6875 C 74.78125 -66.195312 74.316406 -67.382812 73.390625 -68.25 C 72.460938 -69.125 71.300781 -69.5625 69.90625 -69.5625 L 64.859375 -69.5625 Z M 64.859375 -49.21875 "/></g></g></g><g fill="#fe5a5f" fill-opacity="1"><g transform="translate(176.92303, 621.741135)"><g><path d="M 5.046875 -120.171875 L 102.4375 -120.171875 L 102.4375 -69.5625 L 64.859375 -69.5625 L 64.859375 -62.609375 L 102.4375 -62.609375 L 102.4375 -51.65625 L 64.859375 -51.65625 L 64.859375 -44.6875 L 104 -44.6875 L 104 0 L 5.046875 0 Z M 5.046875 -120.171875 "/></g></g></g><g fill="#fe5a5f" fill-opacity="1"><g transform="translate(285.782895, 621.741135)"><g><path d="M 64.859375 -35.125 L 64.859375 0 L 5.046875 0 L 5.046875 -120.171875 L 68.171875 -120.171875 C 88.921875 -120.171875 104.164062 -116.78125 113.90625 -110 C 123.644531 -103.21875 128.515625 -91.476562 128.515625 -74.78125 C 128.515625 -62.144531 124.398438 -52.8125 116.171875 -46.78125 C 123.128906 -34.375 128.40625 -18.78125 132 0 L 74.78125 0 C 73.851562 -11.707031 72.226562 -22.023438 69.90625 -30.953125 L 68.6875 -35.125 Z M 64.859375 -49.21875 L 69.90625 -49.21875 C 71.300781 -49.21875 72.460938 -49.679688 73.390625 -50.609375 C 74.316406 -51.535156 74.78125 -52.753906 74.78125 -54.265625 L 74.78125 -64.6875 C 74.78125 -66.195312 74.316406 -67.382812 73.390625 -68.25 C 72.460938 -69.125 71.300781 -69.5625 69.90625 -69.5625 L 64.859375 -69.5625 Z M 64.859375 -49.21875 "/></g></g></g><g fill="#fe5a5f" fill-opacity="1"><g transform="translate(420.379594, 621.741135)"><g><path d="M 64.859375 -35.125 L 64.859375 0 L 5.046875 0 L 5.046875 -120.171875 L 68.171875 -120.171875 C 88.921875 -120.171875 104.164062 -116.78125 113.90625 -110 C 123.644531 -103.21875 128.515625 -91.476562 128.515625 -74.78125 C 128.515625 -62.144531 124.398438 -52.8125 116.171875 -46.78125 C 123.128906 -34.375 128.40625 -18.78125 132 0 L 74.78125 0 C 73.851562 -11.707031 72.226562 -22.023438 69.90625 -30.953125 L 68.6875 -35.125 Z M 64.859375 -49.21875 L 69.90625 -49.21875 C 71.300781 -49.21875 72.460938 -49.679688 73.390625 -50.609375 C 74.316406 -51.535156 74.78125 -52.753906 74.78125 -54.265625 L 74.78125 -64.6875 C 74.78125 -66.195312 74.316406 -67.382812 73.390625 -68.25 C 72.460938 -69.125 71.300781 -69.5625 69.90625 -69.5625 L 64.859375 -69.5625 Z M 64.859375 -49.21875 "/></g></g></g><g fill="#fe5a5f" fill-opacity="1"><g transform="translate(554.976279, 621.741135)"><g><path d="M 62.4375 -121.90625 L 76.859375 -121.90625 C 97.734375 -121.90625 112.921875 -116.976562 122.421875 -107.125 C 131.929688 -97.269531 136.6875 -81.789062 136.6875 -60.6875 C 136.6875 -39.59375 131.90625 -23.914062 122.34375 -13.65625 C 112.78125 -3.394531 97.617188 1.734375 76.859375 1.734375 L 62.4375 1.734375 C 41.675781 1.734375 26.484375 -3.394531 16.859375 -13.65625 C 7.242188 -23.914062 2.4375 -39.59375 2.4375 -60.6875 C 2.4375 -81.789062 7.21875 -97.269531 16.78125 -107.125 C 26.34375 -116.976562 41.5625 -121.90625 62.4375 -121.90625 Z M 64.6875 -64.6875 L 64.6875 -44.515625 C 64.6875 -43.015625 65.117188 -41.800781 65.984375 -40.875 C 66.859375 -39.945312 68.019531 -39.484375 69.46875 -39.484375 C 70.925781 -39.484375 72.144531 -39.945312 73.125 -40.875 C 74.113281 -41.800781 74.609375 -43.015625 74.609375 -44.515625 L 74.609375 -64.6875 C 74.609375 -66.082031 74.113281 -67.242188 73.125 -68.171875 C 72.144531 -69.097656 70.925781 -69.5625 69.46875 -69.5625 C 68.019531 -69.5625 66.859375 -69.097656 65.984375 -68.171875 C 65.117188 -67.242188 64.6875 -66.082031 64.6875 -64.6875 Z M 64.6875 -64.6875 "/></g></g></g><g fill="#fe5a5f" fill-opacity="1"><g transform="translate(694.268199, 621.741135)"><g><path d="M 64.859375 -35.125 L 64.859375 0 L 5.046875 0 L 5.046875 -120.171875 L 68.171875 -120.171875 C 88.921875 -120.171875 104.164062 -116.78125 113.90625 -110 C 123.644531 -103.21875 128.515625 -91.476562 128.515625 -74.78125 C 128.515625 -62.144531 124.398438 -52.8125 116.171875 -46.78125 C 123.128906 -34.375 128.40625 -18.78125 132 0 L 74.78125 0 C 73.851562 -11.707031 72.226562 -22.023438 69.90625 -30.953125 L 68.6875 -35.125 Z M 64.859375 -49.21875 L 69.90625 -49.21875 C 71.300781 -49.21875 72.460938 -49.679688 73.390625 -50.609375 C 74.316406 -51.535156 74.78125 -52.753906 74.78125 -54.265625 L 74.78125 -64.6875 C 74.78125 -66.195312 74.316406 -67.382812 73.390625 -68.25 C 72.460938 -69.125 71.300781 -69.5625 69.90625 -69.5625 L 64.859375 -69.5625 Z M 64.859375 -49.21875 "/></g></g></g><g fill="#fe5a5f" fill-opacity="1"><g transform="translate(176.92303, 762.223691)"><g><path d="M 5.046875 -120.171875 L 102.4375 -120.171875 L 102.4375 -69.5625 L 64.859375 -69.5625 L 64.859375 -62.609375 L 102.4375 -62.609375 L 102.4375 -51.65625 L 64.859375 -51.65625 L 64.859375 -44.6875 L 104 -44.6875 L 104 0 L 5.046875 0 Z M 5.046875 -120.171875 "/></g></g></g><g fill="#fe5a5f" fill-opacity="1"><g transform="translate(285.782895, 762.223691)"><g><path d="M 64.859375 -35.125 L 64.859375 0 L 5.046875 0 L 5.046875 -120.171875 L 68.171875 -120.171875 C 88.921875 -120.171875 104.164062 -116.78125 113.90625 -110 C 123.644531 -103.21875 128.515625 -91.476562 128.515625 -74.78125 C 128.515625 -62.144531 124.398438 -52.8125 116.171875 -46.78125 C 123.128906 -34.375 128.40625 -18.78125 132 0 L 74.78125 0 C 73.851562 -11.707031 72.226562 -22.023438 69.90625 -30.953125 L 68.6875 -35.125 Z M 64.859375 -49.21875 L 69.90625 -49.21875 C 71.300781 -49.21875 72.460938 -49.679688 73.390625 -50.609375 C 74.316406 -51.535156 74.78125 -52.753906 74.78125 -54.265625 L 74.78125 -64.6875 C 74.78125 -66.195312 74.316406 -67.382812 73.390625 -68.25 C 72.460938 -69.125 71.300781 -69.5625 69.90625 -69.5625 L 64.859375 -69.5625 Z M 64.859375 -49.21875 "/></g></g></g><g fill="#fe5a5f" fill-opacity="1"><g transform="translate(420.379594, 762.223691)"><g><path d="M 64.859375 -35.125 L 64.859375 0 L 5.046875 0 L 5.046875 -120.171875 L 68.171875 -120.171875 C 88.921875 -120.171875 104.164062 -116.78125 113.90625 -110 C 123.644531 -103.21875 128.515625 -91.476562 128.515625 -74.78125 C 128.515625 -62.144531 124.398438 -52.8125 116.171875 -46.78125 C 123.128906 -34.375 128.40625 -18.78125 132 0 L 74.78125 0 C 73.851562 -11.707031 72.226562 -22.023438 69.90625 -30.953125 L 68.6875 -35.125 Z M 64.859375 -49.21875 L 69.90625 -49.21875 C 71.300781 -49.21875 72.460938 -49.679688 73.390625 -50.609375 C 74.316406 -51.535156 74.78125 -52.753906 74.78125 -54.265625 L 74.78125 -64.6875 C 74.78125 -66.195312 74.316406 -67.382812 73.390625 -68.25 C 72.460938 -69.125 71.300781 -69.5625 69.90625 -69.5625 L 64.859375 -69.5625 Z M 64.859375 -49.21875 "/></g></g></g><g fill="#fe5a5f" fill-opacity="1"><g transform="translate(554.976279, 762.223691)"><g><path d="M 62.4375 -121.90625 L 76.859375 -121.90625 C 97.734375 -121.90625 112.921875 -116.976562 122.421875 -107.125 C 131.929688 -97.269531 136.6875 -81.789062 136.6875 -60.6875 C 136.6875 -39.59375 131.90625 -23.914062 122.34375 -13.65625 C 112.78125 -3.394531 97.617188 1.734375 76.859375 1.734375 L 62.4375 1.734375 C 41.675781 1.734375 26.484375 -3.394531 16.859375 -13.65625 C 7.242188 -23.914062 2.4375 -39.59375 2.4375 -60.6875 C 2.4375 -81.789062 7.21875 -97.269531 16.78125 -107.125 C 26.34375 -116.976562 41.5625 -121.90625 62.4375 -121.90625 Z M 64.6875 -64.6875 L 64.6875 -44.515625 C 64.6875 -43.015625 65.117188 -41.800781 65.984375 -40.875 C 66.859375 -39.945312 68.019531 -39.484375 69.46875 -39.484375 C 70.925781 -39.484375 72.144531 -39.945312 73.125 -40.875 C 74.113281 -41.800781 74.609375 -43.015625 74.609375 -44.515625 L 74.609375 -64.6875 C 74.609375 -66.082031 74.113281 -67.242188 73.125 -68.171875 C 72.144531 -69.097656 70.925781 -69.5625 69.46875 -69.5625 C 68.019531 -69.5625 66.859375 -69.097656 65.984375 -68.171875 C 65.117188 -67.242188 64.6875 -66.082031 64.6875 -64.6875 Z M 64.6875 -64.6875 "/></g></g></g><g fill="#fe5a5f" fill-opacity="1"><g transform="translate(694.268199, 762.223691)"><g><path d="M 64.859375 -35.125 L 64.859375 0 L 5.046875 0 L 5.046875 -120.171875 L 68.171875 -120.171875 C 88.921875 -120.171875 104.164062 -116.78125 113.90625 -110 C 123.644531 -103.21875 128.515625 -91.476562 128.515625 -74.78125 C 128.515625 -62.144531 124.398438 -52.8125 116.171875 -46.78125 C 123.128906 -34.375 128.40625 -18.78125 132 0 L 74.78125 0 C 73.851562 -11.707031 72.226562 -22.023438 69.90625 -30.953125 L 68.6875 -35.125 Z M 64.859375 -49.21875 L 69.90625 -49.21875 C 71.300781 -49.21875 72.460938 -49.679688 73.390625 -50.609375 C 74.316406 -51.535156 74.78125 -52.753906 74.78125 -54.265625 L 74.78125 -64.6875 C 74.78125 -66.195312 74.316406 -67.382812 73.390625 -68.25 C 72.460938 -69.125 71.300781 -69.5625 69.90625 -69.5625 L 64.859375 -69.5625 Z M 64.859375 -49.21875 "/></g></g></g><path fill="#a96f7c" d="M 574.660156 554.453125 C 569.714844 554.453125 565.492188 555.011719 562.757812 556.132812 C 559.4375 557.503906 559.96875 558.855469 560.25 559.582031 C 562.625 565.664062 584.625 567.464844 606.398438 563.347656 C 607.679688 563.109375 608.902344 562.855469 610.070312 562.597656 C 600.410156 557.230469 585.730469 554.453125 574.660156 554.453125 M 647.921875 577.628906 C 645.972656 577.628906 643.792969 578.339844 641.558594 579.6875 C 644.921875 579.324219 648.445312 579.148438 652.101562 579.21875 C 651.59375 578.6875 651.003906 578.289062 650.34375 578.042969 C 649.589844 577.761719 648.777344 577.628906 647.921875 577.628906 M 643.988281 584.335938 C 647.519531 584.335938 651.007812 584.78125 654.292969 585.628906 C 654.269531 584.960938 654.207031 584.324219 654.101562 583.71875 C 647.226562 583.414062 640.917969 583.988281 635.207031 585.140625 L 635.054688 585.308594 C 637.984375 584.652344 641 584.335938 643.988281 584.335938 M 617.773438 591.132812 C 617.875 592.476562 617.855469 593.828125 617.734375 595.164062 C 620.496094 592 623.890625 589.574219 627.625 587.824219 C 627.824219 587.519531 628.023438 587.214844 628.226562 586.910156 C 624.394531 588.097656 620.90625 589.539062 617.773438 591.132812 M 590.40625 575.847656 C 578.382812 575.847656 567.300781 581.054688 565.191406 586.203125 C 564.195312 588.625 565.660156 590.863281 569.542969 592.847656 C 580.28125 598.347656 600.964844 595.332031 612.554688 587.171875 C 611.230469 583.296875 608.144531 579.574219 601.671875 577.523438 C 597.988281 576.355469 594.152344 575.847656 590.40625 575.847656 M 613.410156 593.582031 C 604.71875 598.960938 599.710938 605.300781 599.050781 609.261719 C 598.722656 611.199219 599.570312 611.621094 600.398438 611.867188 C 604.3125 613.066406 610.039062 607.183594 612.367188 599.589844 C 612.75 598.332031 613.300781 596.144531 613.410156 593.582031 M 630.640625 591.398438 C 625.996094 599.1875 623.519531 608.898438 626.601562 616.535156 C 626.730469 616.851562 626.871094 617.160156 627.019531 617.46875 C 644.621094 609.789062 652.175781 598.355469 653.886719 590.121094 C 646.644531 588.089844 637.949219 588.363281 630.640625 591.398438 M 623.578125 595.648438 C 621.890625 597.070312 620.386719 598.722656 619.140625 600.625 C 614.640625 607.472656 612.347656 615.089844 612.34375 622.304688 C 616.167969 621.386719 619.679688 620.316406 622.902344 619.125 C 622.753906 618.816406 622.621094 618.507812 622.496094 618.195312 C 619.675781 611.21875 620.597656 603.074219 623.578125 595.648438 M 629.5625 621.335938 C 634.574219 627.207031 643.523438 630.742188 652.238281 629.808594 C 661.855469 628.757812 668.355469 622.371094 670.0625 612.28125 C 672.164062 599.832031 663.21875 593.941406 658.097656 591.636719 C 655.699219 602.246094 646.882812 613.6875 629.5625 621.335938 M 612.652344 626.832031 C 613.214844 630.902344 614.5625 634.757812 616.699219 638.167969 C 623.714844 649.34375 637.691406 654.1875 656.023438 651.722656 C 677.34375 648.90625 686.179688 631.695312 685.484375 615.898438 C 684.851562 601.679688 676.292969 587.003906 658.636719 584.171875 C 658.730469 585.101562 658.757812 586.074219 658.71875 587.078125 C 670.515625 591.8125 676.382812 601.492188 674.429688 613.019531 C 672.371094 625.214844 664.457031 632.9375 652.71875 634.214844 C 642.078125 635.378906 631.089844 630.675781 625.296875 623.074219 C 621.453125 624.519531 617.246094 625.785156 612.652344 626.832031 M 646.953125 656.789062 C 626.5 656.792969 616.980469 646.960938 612.945312 640.523438 C 610.523438 636.660156 608.980469 632.3125 608.308594 627.738281 C 600.136719 629.28125 590.855469 630.171875 580.371094 630.207031 C 579.824219 630.207031 579.277344 630.207031 578.730469 630.207031 C 513.941406 630.210938 433.710938 616.542969 411.21875 590.949219 C 406.164062 585.199219 404.03125 578.996094 404.890625 572.53125 C 406.3125 561.832031 412.390625 553.789062 422.480469 549.289062 C 443.355469 539.96875 475.4375 547.441406 485.945312 554.621094 L 483.441406 558.285156 C 473.917969 551.769531 443.449219 544.785156 424.289062 553.335938 C 415.554688 557.234375 410.507812 563.890625 409.289062 573.105469 C 408.597656 578.332031 410.320312 583.207031 414.546875 588.023438 C 436.175781 612.628906 514.894531 625.773438 578.699219 625.773438 C 579.257812 625.773438 579.796875 625.773438 580.351562 625.765625 C 590.863281 625.730469 600.007812 624.8125 607.933594 623.261719 C 607.851562 619.957031 608.195312 616.578125 608.960938 613.214844 C 605.972656 615.816406 602.539062 617.132812 599.125 616.117188 C 595.710938 615.101562 594.050781 612.257812 594.675781 608.523438 C 595.214844 605.304688 597.640625 601.242188 601.730469 597.171875 C 589.839844 600.914062 576.121094 601.191406 567.527344 596.800781 C 558.964844 592.425781 560.175781 586.75 561.089844 584.511719 C 564.976562 575.042969 586.003906 567.921875 603.003906 573.289062 C 609.957031 575.492188 614.039062 579.539062 616.109375 584.21875 C 620.160156 580.171875 621.246094 575.898438 619.335938 571.484375 C 618.453125 569.46875 616.960938 567.625 615.011719 565.957031 C 612.242188 566.691406 609.546875 567.273438 607.21875 567.714844 C 589.734375 571 560.40625 572.152344 556.128906 561.199219 C 554.625 557.355469 556.472656 553.929688 561.0625 552.035156 C 571.933594 547.554688 601.140625 550.664062 615.839844 561.097656 C 624.285156 558.59375 628.75 555.625 628.75 553.601562 C 628.75 546.316406 605.207031 540.632812 588.492188 538.914062 L 588.941406 534.507812 C 596.332031 535.257812 633.1875 539.734375 633.1875 553.601562 C 633.1875 558.578125 626.910156 562.113281 619.839844 564.507812 C 621.375 566.117188 622.589844 567.847656 623.394531 569.71875 C 625.589844 574.773438 624.9375 579.933594 621.609375 584.585938 C 625.074219 583.203125 628.839844 582.019531 632.882812 581.117188 L 633.023438 580.96875 C 639.382812 574.398438 646.265625 571.835938 651.871094 573.878906 C 654.40625 574.8125 656.332031 576.824219 657.488281 579.539062 C 678.746094 582.007812 689.199219 599.648438 689.910156 615.703125 C 690.671875 632.945312 680.578125 652.949219 656.601562 656.125 C 653.140625 656.585938 649.933594 656.789062 646.953125 656.789062 " fill-opacity="1" fill-rule="nonzero"/><path fill="#ffa794" d="M 387.980469 611.335938 L 396.816406 633.507812 C 396.816406 633.507812 534.226562 637.261719 607.566406 633.507812 L 617.289062 611.335938 L 387.980469 611.335938 " fill-opacity="1" fill-rule="evenodd"/><path fill="#ffdcae" d="M 454.253906 568.039062 L 387.980469 611.335938 C 387.980469 611.335938 517.875 624.894531 617.289062 611.335938 L 557.644531 572.464844 L 454.253906 568.039062 " fill-opacity="1" fill-rule="evenodd"/><path fill="#ee8b88" d="M 450.316406 585.460938 L 443.296875 592.703125 C 443.296875 592.703125 504.253906 607.777344 568.535156 592.703125 L 563.957031 583.371094 L 450.316406 585.460938 " fill-opacity="1" fill-rule="evenodd"/><path fill="#ffc1a4" d="M 430.515625 538.503906 L 452.125 589.769531 C 452.125 589.769531 502.632812 607.8125 561.832031 589.769531 L 578.042969 541.042969 L 430.515625 538.503906 " fill-opacity="1" fill-rule="evenodd"/><path fill="#d57574" d="M 439.742188 560.390625 L 432.519531 543.265625 C 435.328125 543.398438 438.164062 543.535156 441.03125 543.664062 L 441.253906 543.664062 C 473.691406 545.148438 509.800781 546.210938 547.273438 546.210938 C 550.117188 546.210938 552.960938 546.207031 555.8125 546.191406 C 562.632812 546.167969 569.5 546.113281 576.386719 546.015625 L 572.664062 557.195312 C 550.238281 556.304688 531.277344 555.960938 515.316406 555.960938 C 458.296875 555.960938 439.742188 560.390625 439.742188 560.390625 " fill-opacity="1" fill-rule="nonzero"/><path fill="#ffefd3" d="M 419.390625 590.820312 C 419.390625 590.820312 401.839844 606.761719 402.878906 609.769531 C 403.917969 612.777344 512.234375 619.402344 598.308594 609.769531 C 602.84375 609.261719 585.800781 590.820312 585.800781 590.820312 L 617.289062 611.335938 C 617.289062 611.335938 575.167969 617.363281 504.519531 617.363281 C 433.871094 617.363281 387.980469 611.335938 387.980469 611.335938 L 419.390625 590.820312 " fill-opacity="1" fill-rule="evenodd"/><path fill="#ffffff" d="M 554.882812 616.125 C 554.882812 616.125 576.421875 597.582031 603.523438 613.480469 C 603.523438 613.480469 564.234375 615.589844 554.882812 616.125 " fill-opacity="1" fill-rule="evenodd"/><path fill="#ee8b88" d="M 252.660156 705.375 C 252.660156 705.375 263.78125 712.164062 276.269531 704.019531 C 276.269531 704.019531 285.175781 675.757812 275.566406 657.003906 L 251.160156 656.507812 C 251.160156 656.507812 245.070312 688.726562 252.660156 705.375 " fill-opacity="1" fill-rule="evenodd"/><path fill="#ffbe9f" d="M 222.863281 646.09375 C 227.527344 640.777344 248.453125 641.917969 251.160156 656.507812 C 251.160156 656.507812 243.386719 685.296875 232.613281 703.101562 C 232.613281 703.101562 220.140625 708.1875 212.566406 694.453125 C 212.566406 694.453125 215.082031 671.003906 222.863281 646.09375 " fill-opacity="1" fill-rule="evenodd"/><path fill="#f29183" d="M 271.925781 351.039062 C 271.925781 351.039062 246.011719 459.839844 244.902344 600.417969 C 244.902344 600.417969 275.199219 612.277344 292.195312 595.320312 C 292.195312 595.320312 290.714844 454.910156 298.839844 400.578125 L 271.925781 351.039062 " fill-opacity="1" fill-rule="evenodd"/><path fill="#ffbe9f" d="M 221.84375 620.234375 C 210.601562 693.964844 318.855469 698.96875 313.441406 619.402344 L 221.84375 620.234375 " fill-opacity="1" fill-rule="evenodd"/><path fill="#ffdcae" d="M 242.246094 594.828125 C 242.246094 594.828125 228.296875 601.765625 221.84375 620.234375 C 221.84375 620.234375 262.230469 641.484375 313.441406 619.402344 C 313.441406 619.402344 310.320312 604.199219 294.707031 594.828125 C 294.707031 594.828125 267.226562 607.742188 242.246094 594.828125 " fill-opacity="1" fill-rule="evenodd"/><path fill="#ee8b88" d="M 221.84375 620.234375 C 221.84375 620.234375 235.582031 632.160156 267.644531 632.160156 C 299.703125 632.160156 313.441406 619.402344 313.441406 619.402344 C 313.441406 619.402344 298.664062 629.425781 267.332031 629.425781 C 236 629.425781 221.84375 620.234375 221.84375 620.234375 " fill-opacity="1" fill-rule="evenodd"/><path fill="#ee8b88" d="M 271.40625 670.027344 C 270.648438 674.433594 262.964844 676.785156 254.253906 675.277344 C 245.542969 673.769531 239.101562 668.972656 239.863281 664.566406 C 240.625 660.15625 248.304688 657.804688 257.011719 659.3125 C 265.722656 660.820312 272.171875 665.617188 271.40625 670.027344 " fill-opacity="1" fill-rule="evenodd"/><path fill="#ee8b88" d="M 302.050781 658.367188 C 299.628906 657.597656 300.09375 649.371094 303.078125 639.992188 C 306.070312 630.617188 310.449219 623.636719 312.867188 624.410156 C 315.285156 625.179688 314.820312 633.40625 311.835938 642.785156 C 308.851562 652.160156 304.46875 659.140625 302.050781 658.367188 " fill-opacity="1" fill-rule="evenodd"/><path fill="#ffdcae" d="M 313.441406 625.78125 C 313.441406 625.78125 331.355469 636.761719 342.808594 654.132812 C 342.808594 654.132812 344.128906 668.617188 333.941406 668.265625 C 333.941406 668.265625 315.835938 668.617188 305.035156 653.398438 C 303.007812 642.496094 305.101562 634.917969 313.441406 625.78125 " fill-opacity="1" fill-rule="evenodd"/><path fill="#ffdcae" d="M 240.621094 665.554688 C 243.910156 659.375 263.988281 655.832031 269.644531 669.339844 C 269.644531 669.339844 268.382812 698.914062 261.945312 718.53125 C 261.945312 718.53125 251.199219 726.226562 241.113281 714.621094 C 241.113281 714.621094 238.523438 691.378906 240.621094 665.554688 " fill-opacity="1" fill-rule="evenodd"/><path fill="#ffe3ca" d="M 247.011719 537.707031 C 247.011719 537.707031 275.195312 531.773438 292.191406 542.875 L 292.191406 537.707031 C 292.191406 537.707031 276.800781 528.425781 247.277344 533.386719 L 247.011719 537.707031 " fill-opacity="1" fill-rule="evenodd"/><path fill="#ffe3ca" d="M 251.441406 483.433594 C 251.441406 483.433594 267.484375 475.460938 293.273438 482.351562 L 293.417969 477.746094 C 293.417969 477.746094 269.234375 470.980469 251.746094 480.726562 L 251.441406 483.433594 " fill-opacity="1" fill-rule="evenodd"/><path fill="#ffe3ca" d="M 259.847656 416.28125 C 259.847656 416.28125 277.3125 406.121094 297.128906 414.621094 L 297.128906 411.230469 C 297.128906 411.230469 278.195312 402.953125 260.234375 413.753906 L 259.847656 416.28125 " fill-opacity="1" fill-rule="evenodd"/><path fill="#ffffff" d="M 259.847656 700.246094 C 259.847656 700.246094 253.734375 709.949219 259.847656 716.050781 C 259.847656 716.050781 263.433594 709.113281 259.847656 700.246094 " fill-opacity="1" fill-rule="evenodd"/><path fill="#ffffff" d="M 331.355469 648.359375 C 331.355469 648.359375 333.015625 656.726562 339.945312 654.78125 C 339.945312 654.78125 339.113281 648.867188 331.355469 648.359375 " fill-opacity="1" fill-rule="evenodd"/><path fill="#d593a2" d="M 309.8125 610.417969 C 308.871094 608.726562 307.703125 606.90625 306.269531 605.058594 C 308.863281 608.160156 309.71875 610.179688 309.8125 610.417969 M 291.265625 596.207031 C 291.304688 596.171875 291.339844 596.140625 291.378906 596.101562 C 293.53125 595.371094 294.707031 594.828125 294.707031 594.828125 C 294.707031 594.828125 293.464844 595.40625 291.265625 596.207031 " fill-opacity="1" fill-rule="nonzero"/><path fill="#ce5d64" d="M 266.949219 600.566406 C 261.101562 600.566406 254.777344 599.753906 248.457031 597.515625 C 248.410156 597.488281 248.386719 597.472656 248.386719 597.472656 C 255.363281 599.195312 261.863281 599.824219 267.667969 599.824219 C 278.582031 599.824219 287.007812 597.582031 291.378906 596.101562 C 291.339844 596.140625 291.304688 596.171875 291.265625 596.207031 C 286.574219 597.90625 277.535156 600.566406 266.949219 600.566406 " fill-opacity="1" fill-rule="nonzero"/><path fill="#d58279" d="M 309.820312 610.441406 C 271.324219 609.652344 249.835938 598.269531 248.457031 597.515625 C 254.777344 599.753906 261.101562 600.566406 266.949219 600.566406 C 277.535156 600.566406 286.574219 597.90625 291.265625 596.207031 C 293.464844 595.40625 294.707031 594.828125 294.707031 594.828125 C 300.351562 598.757812 303.988281 602.324219 306.269531 605.058594 C 307.703125 606.90625 308.871094 608.726562 309.8125 610.417969 C 309.820312 610.433594 309.820312 610.441406 309.820312 610.441406 " fill-opacity="1" fill-rule="nonzero"/><path fill="#ffffff" d="M 227.449219 616.125 C 227.449219 616.125 231.097656 605.816406 239.800781 603.410156 C 239.800781 603.410156 236.039062 614.058594 227.449219 616.125 " fill-opacity="1" fill-rule="evenodd"/><path fill="#c85d64" d="M 292.191406 513.613281 L 281.453125 480.066406 C 283.917969 480.355469 286.503906 480.78125 289.21875 481.371094 C 290.308594 485.914062 291.4375 490.457031 292.601562 495 L 292.191406 513.613281 M 288.09375 476.609375 C 285.898438 476.230469 283.136719 475.855469 280.039062 475.636719 L 260.871094 415.738281 C 262.980469 414.699219 268.203125 412.425781 275.148438 411.566406 C 278.679688 432.78125 282.949219 454.644531 288.09375 476.609375 M 260.234375 413.753906 L 268.765625 368.003906 C 270.4375 381.136719 272.394531 394.730469 274.664062 408.628906 C 270.046875 409.296875 265.105469 410.824219 260.234375 413.753906 " fill-opacity="1" fill-rule="nonzero"/><path fill="#ce8687" d="M 289.21875 481.371094 C 286.503906 480.78125 283.917969 480.355469 281.453125 480.066406 L 280.039062 475.636719 C 283.136719 475.855469 285.898438 476.230469 288.09375 476.609375 C 288.460938 478.191406 288.835938 479.785156 289.21875 481.371094 " fill-opacity="1" fill-rule="nonzero"/><path fill="#ce8687" d="M 260.871094 415.738281 L 260.234375 413.753906 C 265.105469 410.824219 270.046875 409.296875 274.664062 408.628906 C 274.824219 409.605469 274.984375 410.585938 275.148438 411.566406 C 268.203125 412.425781 262.980469 414.699219 260.871094 415.738281 " fill-opacity="1" fill-rule="nonzero"/><path fill="#ee8b88" d="M 753.230469 707.582031 C 753.230469 707.582031 742.109375 714.371094 729.625 706.226562 C 729.625 706.226562 720.722656 677.964844 730.328125 659.207031 L 754.734375 658.714844 C 754.734375 658.714844 760.824219 690.933594 753.230469 707.582031 " fill-opacity="1" fill-rule="evenodd"/><path fill="#ffbe9f" d="M 783.03125 648.300781 C 778.367188 642.984375 757.441406 644.125 754.734375 658.714844 C 754.734375 658.714844 762.503906 687.503906 773.28125 705.304688 C 773.28125 705.304688 785.753906 710.394531 793.328125 696.660156 C 793.328125 696.660156 790.8125 673.207031 783.03125 648.300781 " fill-opacity="1" fill-rule="evenodd"/><path fill="#f29183" d="M 733.96875 353.246094 C 733.96875 353.246094 759.882812 462.046875 760.992188 602.625 C 760.992188 602.625 730.695312 614.480469 713.703125 597.527344 C 713.703125 597.527344 715.179688 457.117188 707.050781 402.785156 L 733.96875 353.246094 " fill-opacity="1" fill-rule="evenodd"/><path fill="#ffbe9f" d="M 784.054688 622.445312 C 795.292969 696.171875 687.039062 701.175781 692.453125 621.609375 L 784.054688 622.445312 " fill-opacity="1" fill-rule="evenodd"/><path fill="#ffdcae" d="M 763.648438 597.03125 C 763.648438 597.03125 777.597656 603.972656 784.054688 622.445312 C 784.054688 622.445312 743.664062 643.6875 692.453125 621.609375 C 692.453125 621.609375 695.574219 606.40625 711.1875 597.03125 C 711.1875 597.03125 738.667969 609.941406 763.648438 597.03125 " fill-opacity="1" fill-rule="evenodd"/><path fill="#ee8b88" d="M 784.054688 622.445312 C 784.054688 622.445312 770.308594 634.363281 738.25 634.363281 C 706.191406 634.363281 692.453125 621.609375 692.453125 621.609375 C 692.453125 621.609375 707.230469 631.632812 738.5625 631.632812 C 769.890625 631.632812 784.054688 622.445312 784.054688 622.445312 " fill-opacity="1" fill-rule="evenodd"/><path fill="#ee8b88" d="M 734.488281 672.230469 C 735.246094 676.640625 742.929688 678.992188 751.640625 677.484375 C 760.351562 675.976562 766.792969 671.179688 766.03125 666.769531 C 765.269531 662.363281 757.59375 660.011719 748.878906 661.519531 C 740.167969 663.027344 733.726562 667.824219 734.488281 672.230469 " fill-opacity="1" fill-rule="evenodd"/><path fill="#ee8b88" d="M 703.84375 660.574219 C 706.257812 659.804688 705.800781 651.578125 702.816406 642.199219 C 699.824219 632.820312 695.445312 625.84375 693.027344 626.617188 C 690.609375 627.386719 691.074219 635.613281 694.058594 644.992188 C 697.046875 654.371094 701.425781 661.347656 703.84375 660.574219 " fill-opacity="1" fill-rule="evenodd"/><path fill="#ffdcae" d="M 692.453125 627.988281 C 692.453125 627.988281 674.539062 638.972656 663.085938 656.34375 C 663.085938 656.34375 661.765625 670.824219 671.957031 670.472656 C 671.957031 670.472656 690.054688 670.824219 700.859375 655.605469 C 702.886719 644.699219 700.789062 637.125 692.453125 627.988281 " fill-opacity="1" fill-rule="evenodd"/><g clip-path="url(#fcfce397eb)"><path fill="#ffdcae" d="M 765.277344 667.761719 C 761.984375 661.582031 741.90625 658.039062 736.25 671.546875 C 736.25 671.546875 737.511719 701.125 743.949219 720.734375 C 743.949219 720.734375 754.691406 728.433594 764.777344 716.828125 C 764.777344 716.828125 767.371094 693.589844 765.277344 667.761719 " fill-opacity="1" fill-rule="evenodd"/></g><path fill="#ffe3ca" d="M 758.878906 539.914062 C 758.878906 539.914062 730.699219 533.980469 713.703125 545.078125 L 713.703125 539.914062 C 713.703125 539.914062 729.09375 530.632812 758.617188 535.597656 L 758.878906 539.914062 " fill-opacity="1" fill-rule="evenodd"/><path fill="#ffe3ca" d="M 754.453125 485.640625 C 754.453125 485.640625 738.410156 477.664062 712.621094 484.5625 L 712.472656 479.953125 C 712.472656 479.953125 736.660156 473.183594 754.148438 482.929688 L 754.453125 485.640625 " fill-opacity="1" fill-rule="evenodd"/><path fill="#ffe3ca" d="M 746.042969 418.484375 C 746.042969 418.484375 728.582031 408.328125 708.761719 416.828125 L 708.761719 413.4375 C 708.761719 413.4375 727.695312 405.15625 745.660156 415.960938 L 746.042969 418.484375 " fill-opacity="1" fill-rule="evenodd"/><path fill="#ffffff" d="M 746.042969 702.449219 C 746.042969 702.449219 752.160156 712.15625 746.042969 718.253906 C 746.042969 718.253906 742.464844 711.324219 746.042969 702.449219 " fill-opacity="1" fill-rule="evenodd"/><path fill="#ffffff" d="M 674.539062 650.566406 C 674.539062 650.566406 672.878906 658.933594 665.949219 656.988281 C 665.949219 656.988281 666.785156 651.074219 674.539062 650.566406 " fill-opacity="1" fill-rule="evenodd"/><path fill="#d593a2" d="M 779.480469 612.648438 C 779.460938 612.648438 779.433594 612.648438 779.414062 612.648438 C 773.316406 602.722656 765.632812 598.117188 763.972656 597.207031 C 764.234375 597.09375 764.367188 597.03125 764.367188 597.03125 C 776.855469 605.730469 779.480469 612.648438 779.480469 612.648438 " fill-opacity="1" fill-rule="nonzero"/><path fill="#ce5d64" d="M 738.945312 602.769531 C 731.753906 602.769531 725.273438 601.539062 720.386719 600.21875 C 726.480469 601.53125 732.179688 602.03125 737.324219 602.03125 C 748.070312 602.03125 756.394531 599.859375 760.828125 598.375 C 753.390625 601.640625 745.839844 602.769531 738.945312 602.769531 " fill-opacity="1" fill-rule="nonzero"/><path fill="#d58279" d="M 779.414062 612.648438 C 739.636719 611.816406 718.046875 599.679688 718.046875 599.679688 C 718.832031 599.875 719.609375 600.054688 720.386719 600.21875 C 725.273438 601.539062 731.753906 602.769531 738.945312 602.769531 C 745.839844 602.769531 753.390625 601.640625 760.828125 598.375 C 762.371094 597.863281 763.441406 597.433594 763.972656 597.207031 C 765.632812 598.117188 773.316406 602.722656 779.414062 612.648438 " fill-opacity="1" fill-rule="nonzero"/><path fill="#c85d64" d="M 713.703125 509.800781 L 713.351562 495.53125 C 714.417969 491.746094 715.492188 487.761719 716.582031 483.597656 C 718.617188 483.148438 720.589844 482.800781 722.492188 482.527344 L 713.703125 509.800781 M 717.808594 478.8125 C 722.558594 460.074219 727.371094 438.019531 731.628906 413.890625 C 736.863281 414.644531 741.039062 416.167969 743.523438 417.25 L 723.949219 478 C 721.625 478.21875 719.539062 478.519531 717.808594 478.8125 " fill-opacity="1" fill-rule="nonzero"/><path fill="#ce93a2" d="M 745.097656 412.367188 C 744.148438 406.386719 743.21875 400.804688 742.320312 395.640625 L 745.417969 411.359375 L 745.097656 412.367188 " fill-opacity="1" fill-rule="nonzero"/><path fill="#c85d64" d="M 744.207031 415.125 C 740.128906 412.910156 736.027344 411.632812 732.136719 410.976562 C 733.550781 402.828125 734.898438 394.453125 736.160156 385.894531 C 736.765625 381.726562 737.351562 377.511719 737.910156 373.265625 L 742.320312 395.640625 C 743.21875 400.804688 744.148438 406.386719 745.097656 412.367188 L 744.207031 415.125 " fill-opacity="1" fill-rule="nonzero"/><path fill="#ce8687" d="M 716.582031 483.597656 C 716.988281 482.027344 717.398438 480.433594 717.808594 478.8125 C 719.539062 478.519531 721.625 478.21875 723.949219 478 L 722.492188 482.527344 C 720.589844 482.800781 718.617188 483.148438 716.582031 483.597656 " fill-opacity="1" fill-rule="nonzero"/><path fill="#ce8687" d="M 743.523438 417.25 C 741.039062 416.167969 736.863281 414.644531 731.628906 413.890625 C 731.796875 412.925781 731.96875 411.953125 732.136719 410.976562 C 736.027344 411.632812 740.128906 412.910156 744.207031 415.125 L 743.523438 417.25 " fill-opacity="1" fill-rule="nonzero"/><path fill="#ffb496" d="M 267.023438 219.734375 C 267.023438 219.734375 277.796875 204.0625 308.632812 193.945312 C 361.277344 176.664062 579.667969 160.785156 695.992188 186.011719 C 732.570312 193.945312 741.679688 219.734375 741.679688 219.734375 L 267.023438 219.734375 " fill-opacity="1" fill-rule="evenodd"/><path fill="#ffe1c1" d="M 263.628906 230.585938 C 262.980469 277.679688 269.792969 399.515625 302.289062 513.507812 C 304.953125 522.847656 312.992188 529.546875 322.535156 530.28125 C 373.792969 534.222656 538.660156 548.449219 681.523438 535.09375 C 690.75 534.230469 697.917969 527.507812 701.140625 518.679688 C 718.113281 472.105469 747.800781 340.105469 740.5625 223.453125 C 739.898438 212.683594 731.929688 203.878906 721.457031 202.113281 C 670.238281 193.492188 511.273438 168.824219 283.128906 207.972656 C 272.089844 209.871094 263.78125 219.207031 263.628906 230.585938 " fill-opacity="1" fill-rule="evenodd"/><path fill="#ee8b88" d="M 263.628906 232.855469 C 262.980469 279.949219 269.792969 401.785156 302.289062 515.777344 C 304.953125 525.117188 312.992188 531.816406 322.535156 532.550781 C 373.792969 536.492188 538.660156 550.71875 681.523438 537.363281 C 690.75 536.5 697.917969 529.777344 701.140625 520.949219 C 718.113281 474.375 747.800781 342.375 740.5625 225.722656 C 739.898438 214.957031 731.929688 206.148438 721.457031 204.382812 C 670.238281 195.761719 510.480469 175.597656 283.128906 210.242188 C 272.054688 211.929688 263.78125 221.476562 263.628906 232.855469 " fill-opacity="1" fill-rule="evenodd"/><path fill="#ffdcae" d="M 736.160156 385.894531 C 727.203125 446.746094 713.773438 498.464844 704.238281 524.195312 C 700.957031 533.0625 693.6875 539.765625 684.335938 540.648438 C 642.261719 544.507812 598.28125 546.058594 555.8125 546.191406 C 515.292969 546.367188 476.144531 545.261719 441.253906 543.664062 L 441.03125 543.664062 C 386.414062 541.179688 342.257812 537.542969 319.738281 535.816406 C 311.359375 535.191406 304.175781 530.136719 300.589844 522.773438 L 299.167969 519.046875 C 266.136719 405.058594 259.222656 283.210938 259.890625 236.105469 C 260.066406 224.753906 268.441406 215.21875 279.703125 213.488281 C 334.542969 205.285156 385.484375 200.140625 432.035156 197.210938 C 581.4375 187.761719 685.21875 201.074219 724.898438 207.636719 C 735.535156 209.40625 743.609375 218.234375 744.269531 228.972656 C 747.550781 281.21875 743.339844 336.527344 736.160156 385.894531 " fill-opacity="1" fill-rule="evenodd"/><path fill="#efa99f" d="M 341.613281 506.578125 C 388.472656 510.621094 529.542969 520.460938 660.839844 505.976562 C 669.550781 505.015625 676.707031 498.628906 678.902344 490.039062 C 688.144531 453.859375 710.644531 354.816406 706.5625 262.289062 C 706.097656 251.871094 698.273438 243.324219 688.054688 242.027344 C 640.527344 235.988281 499.863281 222.71875 320.554688 247.753906 C 309.867188 249.25 301.972656 258.613281 302.234375 269.539062 C 303.152344 307.644531 306.929688 397.414062 322.566406 488.800781 C 324.214844 498.425781 332.007812 505.746094 341.613281 506.578125 " fill-opacity="1" fill-rule="evenodd"/><path fill="#ffeace" d="M 733.453125 390.949219 L 701.453125 370.382812 C 705.65625 336.164062 708.167969 298.722656 706.5625 262.289062 C 706.097656 251.871094 698.273438 243.324219 688.054688 242.027344 C 688.035156 242.027344 688.015625 242.023438 687.992188 242.023438 C 687.1875 241.824219 686.367188 241.667969 685.527344 241.5625 C 659.445312 238.28125 605.019531 232.828125 531.429688 232.828125 C 517.734375 232.828125 503.363281 233.015625 488.40625 233.441406 L 432.035156 197.210938 C 468.964844 194.875 503.113281 193.933594 534.191406 193.933594 C 628.832031 193.933594 695.027344 202.691406 724.898438 207.636719 C 735.535156 209.40625 743.609375 218.234375 744.269531 228.972656 C 745.042969 241.269531 745.402344 253.734375 745.402344 266.253906 C 745.40625 306.925781 741.648438 348.148438 736.160156 385.894531 L 733.453125 390.949219 " fill-opacity="1" fill-rule="nonzero"/><path fill="#f5cbc5" d="M 701.453125 370.382812 L 698.476562 368.472656 C 701.894531 341.5625 704.234375 312.535156 704.238281 283.597656 C 704.238281 276.148438 704.082031 268.703125 703.753906 261.304688 C 703.34375 251.992188 696.828125 244.210938 687.992188 242.023438 C 688.015625 242.023438 688.035156 242.027344 688.054688 242.027344 C 698.273438 243.324219 706.097656 251.871094 706.5625 262.289062 C 708.167969 298.722656 705.65625 336.164062 701.453125 370.382812 " fill-opacity="1" fill-rule="nonzero"/><path fill="#523164" d="M 695.636719 388.820312 C 689.390625 430.429688 681.1875 464.9375 676.484375 483.164062 C 674.3125 491.5 667.265625 497.757812 658.664062 498.6875 C 640.355469 500.683594 621.910156 502.191406 603.511719 503.300781 L 603.425781 503.34375 C 491.707031 510.175781 383.53125 502.636719 343.855469 499.265625 C 334.414062 498.464844 326.699219 491.324219 325.101562 481.96875 C 323.195312 470.832031 321.421875 459.742188 319.824219 448.789062 C 308.785156 371.878906 305.859375 300.867188 305.066406 268.355469 C 304.796875 257.710938 312.558594 248.574219 323.105469 247.109375 C 356.578125 242.5 388.71875 239.214844 419.089844 236.996094 C 549.164062 227.375 647.492188 236.773438 685.527344 241.5625 C 695.597656 242.808594 703.308594 251.144531 703.753906 261.304688 C 705.699219 304.859375 701.535156 349.921875 695.636719 388.820312 " fill-opacity="1" fill-rule="evenodd"/><path fill="#ffebfd" d="M 363.335938 197.613281 L 407.945312 178.488281 C 407.945312 178.488281 465.433594 173.335938 508.671875 173.15625 L 495.386719 188.40625 C 495.386719 188.40625 391.734375 194.367188 363.335938 197.613281 " fill-opacity="1" fill-rule="evenodd"/><path fill="#7d608d" d="M 375.132812 308.542969 C 375.132812 308.542969 384.554688 293.570312 420.574219 284.144531 L 422.511719 300.226562 C 422.511719 300.226562 399.242188 300.503906 377.902344 316.304688 L 375.132812 308.542969 " fill-opacity="1" fill-rule="evenodd"/><path fill="#7d608d" d="M 579.621094 284.144531 L 576.449219 297.289062 C 576.449219 297.289062 600.953125 302.71875 615.636719 316.304688 L 620.074219 308.542969 C 620.074219 308.542969 604.003906 288.027344 579.621094 284.144531 " fill-opacity="1" fill-rule="evenodd"/><path fill="#20123c" d="M 469.894531 454.542969 C 469.894531 454.542969 495.015625 430.148438 507.945312 431.253906 C 520.878906 432.363281 522.722656 447.886719 522.722656 447.886719 C 522.722656 447.886719 492.800781 445.300781 469.894531 454.542969 " fill-opacity="1" fill-rule="evenodd"/><path fill="#7f6f87" d="M 469.894531 454.542969 C 469.894531 454.542969 483.75 443.785156 499.820312 442.878906 C 515.890625 441.972656 522.722656 447.886719 522.722656 447.886719 C 522.722656 447.886719 495.753906 445.300781 469.894531 454.542969 " fill-opacity="1" fill-rule="evenodd"/><path fill="#805d8d" d="M 602.890625 424.546875 C 595.570312 415.570312 588.097656 407.699219 581.082031 400.945312 C 573.25 406.964844 565.144531 413.289062 557.453125 419.4375 L 545.261719 405.289062 C 546.226562 402.714844 557.359375 388.246094 564.574219 384.421875 C 553.796875 375.457031 544.335938 370.070312 544.335938 370.070312 C 553.574219 352.523438 567.984375 346.242188 567.984375 346.242188 C 575.210938 350.980469 581.78125 356.804688 587.6875 362.949219 C 596.160156 356.277344 605.460938 350.296875 615.082031 346.410156 L 628.664062 363.59375 C 628.664062 363.59375 617.636719 373.574219 604.480469 383.445312 C 615.699219 398.839844 622.84375 411.109375 622.84375 411.109375 L 602.890625 424.546875 " fill-opacity="1" fill-rule="nonzero"/><path fill="#805d8d" d="M 395.507812 425.292969 L 374.949219 411.109375 C 374.949219 411.109375 384.078125 398.839844 395.292969 383.445312 C 382.136719 373.574219 371.113281 363.59375 371.113281 363.59375 L 382.707031 346.410156 C 392.332031 350.296875 404.5625 358.636719 413.039062 365.316406 C 418.945312 359.164062 429.582031 352.480469 436.003906 346.242188 C 436.003906 346.242188 453.6875 357.101562 456.734375 370.070312 C 456.734375 370.070312 445.976562 375.457031 435.203125 384.421875 C 441.003906 388.820312 453.550781 402.714844 454.515625 405.289062 L 442.324219 419.4375 C 434.636719 413.289062 425.542969 406.132812 417.710938 400.113281 C 410.695312 406.871094 402.828125 416.320312 395.507812 425.292969 " fill-opacity="1" fill-rule="nonzero"/><path fill="#f7266f" d="M 625.0625 364.066406 L 615.082031 346.410156 C 605.460938 350.296875 596.160156 356.277344 587.6875 362.949219 C 581.78125 356.804688 575.210938 350.980469 567.984375 346.242188 C 567.984375 346.242188 550.523438 356.5 547.480469 369.46875 C 547.480469 369.46875 554.90625 374.269531 565.683594 383.238281 C 554.492188 395.054688 547.480469 404.789062 547.480469 404.789062 L 557.453125 415.542969 C 565.144531 409.394531 573.25 403.070312 581.082031 397.050781 C 588.097656 403.804688 595.570312 411.675781 602.890625 420.652344 L 620.074219 409.449219 C 620.074219 409.449219 613.773438 396.148438 602.554688 380.753906 C 615.714844 370.886719 625.0625 364.066406 625.0625 364.066406 " fill-opacity="1" fill-rule="evenodd"/><path fill="#f7266f" d="M 455.117188 368.121094 C 448.558594 353.082031 436.003906 346.242188 436.003906 346.242188 C 427.851562 351.589844 420.089844 358.289062 413.039062 365.316406 C 403.800781 357.703125 393.457031 350.75 382.707031 346.410156 L 372.730469 364.066406 C 372.730469 364.066406 383.183594 371.695312 397.503906 382.460938 C 385.402344 397.109375 377.71875 409.449219 377.71875 409.449219 L 394.898438 420.652344 C 402.039062 411.898438 409.675781 404.097656 417.042969 397.308594 C 424.769531 403.25 432.757812 409.480469 440.339844 415.542969 L 450.316406 404.789062 C 450.316406 404.789062 443.558594 395.425781 432.75 383.921875 C 445.613281 373.78125 455.117188 368.121094 455.117188 368.121094 " fill-opacity="1" fill-rule="evenodd"/><path fill="#f5bca3" d="M 547.273438 546.210938 C 509.800781 546.210938 473.691406 545.148438 441.253906 543.664062 L 441.03125 543.664062 C 386.414062 541.179688 342.257812 537.542969 319.738281 535.816406 C 311.359375 535.191406 304.175781 530.136719 300.589844 522.773438 L 299.167969 519.046875 C 299.167969 519.046875 365.710938 541.757812 509.792969 541.757812 C 653.875 541.757812 704.238281 524.195312 704.238281 524.195312 C 700.957031 533.0625 693.6875 539.765625 684.335938 540.648438 C 665.433594 542.382812 646.148438 543.648438 626.789062 544.53125 C 623.585938 544.675781 620.382812 544.8125 617.175781 544.9375 C 596.625 545.742188 576.046875 546.128906 555.8125 546.191406 C 552.960938 546.207031 550.117188 546.210938 547.273438 546.210938 " fill-opacity="1" fill-rule="nonzero"/><path fill="#fffbd7" d="M 671.234375 514.003906 C 673.84375 515.3125 672.125 535.289062 669.320312 537.871094 C 666.523438 540.453125 616.050781 542.902344 612.183594 539.851562 C 609.453125 537.699219 609.988281 520.59375 613.464844 516.445312 C 616.460938 512.871094 666.3125 511.527344 671.234375 514.003906 " fill-opacity="1" fill-rule="evenodd"/><path fill="#e3847e" d="M 671.234375 512.628906 C 673.84375 513.941406 672.125 533.917969 669.320312 536.5 C 666.523438 539.082031 616.847656 540.976562 612.976562 537.925781 C 610.25 535.773438 611.191406 518.226562 613.464844 515.074219 C 616.179688 511.3125 666.3125 510.152344 671.234375 512.628906 " fill-opacity="1" fill-rule="evenodd"/><path fill="#ffaa94" d="M 669.410156 514.03125 C 672.285156 516.089844 671.152344 530.753906 670.082031 534.925781 C 669.90625 535.609375 667.792969 536.375 667.492188 536.480469 C 663.523438 537.886719 617.949219 539.734375 614.332031 536.867188 C 610.710938 534.007812 614.066406 519.234375 614.953125 516.886719 C 615.832031 514.539062 664.320312 510.378906 669.410156 514.03125 " fill-opacity="1" fill-rule="evenodd"/><path fill="#fecaad" d="M 616.925781 535.707031 C 620.546875 538.5625 666.484375 537.597656 669.824219 535.160156 C 671.414062 533.957031 672.1875 529.488281 672.1875 524.980469 L 672.1875 524.902344 C 672.1875 520.09375 673.753906 515.007812 672.246094 513.917969 C 667.15625 510.273438 618.140625 513.996094 617.289062 516.363281 C 616.390625 518.691406 613.300781 532.851562 616.925781 535.707031 " fill-opacity="1" fill-rule="evenodd"/><path fill="#fffbd7" d="M 617.289062 516.363281 C 632.4375 513.28125 664.957031 513.390625 669.726562 515.121094 C 674.164062 516.734375 672.148438 524.074219 672.1875 524.902344 C 672.1875 520.09375 673.753906 515.007812 672.246094 513.917969 C 667.15625 510.273438 618.140625 513.996094 617.289062 516.363281 " fill-opacity="1" fill-rule="evenodd"/><path fill="#ffffff" d="M 672.246094 513.917969 C 672.246094 513.917969 670.472656 517.785156 663.511719 516.691406 C 656.558594 515.597656 656.3125 512.390625 656.3125 512.390625 C 656.3125 512.390625 668.253906 511.847656 672.246094 513.917969 " fill-opacity="1" fill-rule="evenodd"/><path fill="#ffffff" d="M 588.71875 194.925781 C 588.71875 194.925781 595.132812 215.9375 625.0625 219.734375 C 654.984375 223.527344 677.40625 201.242188 677.40625 201.242188 C 677.40625 201.242188 619.234375 195.734375 588.71875 194.925781 " fill-opacity="1" fill-rule="evenodd"/><path fill="#5b386b" d="M 695.636719 388.820312 L 419.089844 236.996094 C 459.957031 233.972656 497.710938 232.828125 531.429688 232.828125 C 605.019531 232.828125 659.445312 238.28125 685.527344 241.5625 C 695.597656 242.808594 703.308594 251.144531 703.753906 261.304688 C 704.082031 268.703125 704.238281 276.148438 704.238281 283.597656 C 704.234375 312.535156 701.894531 341.5625 698.476562 368.472656 C 697.59375 375.40625 696.644531 382.203125 695.636719 388.820312 M 579.621094 284.144531 L 576.449219 297.289062 C 576.449219 297.289062 600.953125 302.71875 615.636719 316.304688 L 620.074219 308.542969 C 620.074219 308.542969 604.003906 288.027344 579.621094 284.144531 " fill-opacity="1" fill-rule="nonzero"/><path fill="#704f7f" d="M 615.636719 316.304688 C 600.953125 302.71875 576.449219 297.289062 576.449219 297.289062 L 579.621094 284.144531 C 604.003906 288.027344 620.074219 308.542969 620.074219 308.542969 L 615.636719 316.304688 " fill-opacity="1" fill-rule="nonzero"/><path fill="#ffffff" d="M 278.738281 363.574219 C 278.738281 363.574219 272.429688 390.949219 285.910156 411.109375 C 285.910156 411.109375 285.542969 376.101562 278.738281 363.574219 " fill-opacity="1" fill-rule="evenodd"/><path fill="#4d2d5f" d="M 507.75 506.113281 C 434.179688 506.113281 371.90625 501.648438 343.855469 499.265625 C 334.414062 498.464844 326.699219 491.324219 325.101562 481.96875 C 323.195312 470.832031 321.421875 459.742188 319.824219 448.789062 L 603.511719 503.300781 L 603.425781 503.34375 C 570.6875 505.347656 538.246094 506.113281 507.75 506.113281 " fill-opacity="1" fill-rule="nonzero"/><path fill="#f7bdb5" d="M 251.441406 563.054688 C 249.675781 554.816406 248.980469 546.070312 248.988281 537.347656 C 250.785156 537.054688 253.691406 536.644531 257.261719 536.382812 C 254.535156 552.230469 251.441406 563.054688 251.441406 563.054688 M 249.046875 533.105469 C 249.566406 513.019531 253.542969 493.597656 256.519531 481.632812 C 257.785156 481.277344 259.277344 480.921875 260.976562 480.601562 C 262.167969 498.628906 260.335938 517.191406 257.96875 532.128906 C 255.160156 532.3125 252.183594 532.628906 249.046875 533.105469 M 257.398438 478.1875 C 258.820312 472.78125 259.847656 469.59375 259.847656 469.59375 C 260.207031 472.097656 260.492188 474.625 260.714844 477.171875 C 259.597656 477.460938 258.496094 477.800781 257.398438 478.1875 " fill-opacity="1" fill-rule="nonzero"/><path fill="#ffeedf" d="M 248.988281 537.347656 C 248.992188 535.933594 249.007812 534.515625 249.046875 533.105469 C 252.183594 532.628906 255.160156 532.3125 257.96875 532.128906 C 257.738281 533.582031 257.503906 535.003906 257.261719 536.382812 C 253.691406 536.644531 250.785156 537.054688 248.988281 537.347656 " fill-opacity="1" fill-rule="nonzero"/><path fill="#ffeedf" d="M 256.519531 481.632812 C 256.824219 480.402344 257.117188 479.253906 257.398438 478.1875 C 258.496094 477.800781 259.597656 477.460938 260.714844 477.171875 C 260.816406 478.308594 260.90625 479.453125 260.976562 480.601562 C 259.277344 480.921875 257.785156 481.277344 256.519531 481.632812 " fill-opacity="1" fill-rule="nonzero"/><path fill="#f7bdb5" d="M 722.175781 587.191406 C 718.003906 574.480469 716.996094 557.175781 717.023438 543.1875 C 718.667969 542.375 720.378906 541.683594 722.136719 541.101562 C 725.421875 567.675781 722.175781 587.191406 722.175781 587.191406 M 717.070312 538.335938 C 717.273438 527.132812 718.046875 519.046875 718.046875 519.046875 C 719.578125 525.164062 720.71875 531.121094 721.554688 536.800781 C 719.75 537.328125 718.253906 537.863281 717.070312 538.335938 " fill-opacity="1" fill-rule="nonzero"/><path fill="#ffeedf" d="M 717.023438 543.1875 C 717.023438 541.519531 717.042969 539.894531 717.070312 538.335938 C 718.253906 537.863281 719.75 537.328125 721.554688 536.800781 C 721.765625 538.253906 721.960938 539.6875 722.136719 541.101562 C 720.378906 541.683594 718.667969 542.375 717.023438 543.1875 " fill-opacity="1" fill-rule="nonzero"/></svg>